<mxfile host="65bd71144e" pages="6">
    <diagram id="ECRyhqmaP2eCVIrjqHZc" name="githubandlocal">
        <mxGraphModel dx="2311" dy="1669" grid="1" gridSize="10" guides="1" tooltips="1" connect="1" arrows="1" fold="1" page="1" pageScale="1" pageWidth="827" pageHeight="1169" math="0" shadow="0">
            <root>
                <mxCell id="0"/>
                <mxCell id="1" parent="0"/>
                <mxCell id="JbaJO5PRv0PnmUyhNAog-15" value="" style="rounded=0;whiteSpace=wrap;html=1;strokeColor=none;" vertex="1" parent="1">
                    <mxGeometry x="-120" y="40" width="1040" height="600" as="geometry"/>
                </mxCell>
                <mxCell id="zcFH50ofNuThb92pxpb8-3" value="" style="group" vertex="1" connectable="0" parent="1">
                    <mxGeometry x="296" y="90" width="332.68" height="190" as="geometry"/>
                </mxCell>
                <mxCell id="JbaJO5PRv0PnmUyhNAog-3" value="" style="rounded=0;whiteSpace=wrap;html=1;" vertex="1" parent="zcFH50ofNuThb92pxpb8-3">
                    <mxGeometry x="-16" width="346" height="190" as="geometry"/>
                </mxCell>
                <mxCell id="zcFH50ofNuThb92pxpb8-1" value="" style="shape=image;verticalLabelPosition=bottom;labelBackgroundColor=default;verticalAlign=top;aspect=fixed;imageAspect=0;image=data:image/png,iVBORw0KGgoAAAANSUhEUgAAA+gAAAGaCAYAAACc1mkHAAAAGXRFWHRTb2Z0d2FyZQBBZG9iZSBJbWFnZVJlYWR5ccllPAAAA2hpVFh0WE1MOmNvbS5hZG9iZS54bXAAAAAAADw/eHBhY2tldCBiZWdpbj0i77u/IiBpZD0iVzVNME1wQ2VoaUh6cmVTek5UY3prYzlkIj8+IDx4OnhtcG1ldGEgeG1sbnM6eD0iYWRvYmU6bnM6bWV0YS8iIHg6eG1wdGs9IkFkb2JlIFhNUCBDb3JlIDUuMy1jMDExIDY2LjE0NTY2MSwgMjAxMi8wMi8wNi0xNDo1NjoyNyAgICAgICAgIj4gPHJkZjpSREYgeG1sbnM6cmRmPSJodHRwOi8vd3d3LnczLm9yZy8xOTk5LzAyLzIyLXJkZi1zeW50YXgtbnMjIj4gPHJkZjpEZXNjcmlwdGlvbiByZGY6YWJvdXQ9IiIgeG1sbnM6eG1wTU09Imh0dHA6Ly9ucy5hZG9iZS5jb20veGFwLzEuMC9tbS8iIHhtbG5zOnN0UmVmPSJodHRwOi8vbnMuYWRvYmUuY29tL3hhcC8xLjAvc1R5cGUvUmVzb3VyY2VSZWYjIiB4bWxuczp4bXA9Imh0dHA6Ly9ucy5hZG9iZS5jb20veGFwLzEuMC8iIHhtcE1NOk9yaWdpbmFsRG9jdW1lbnRJRD0ieG1wLmRpZDpGQTdGMTE3NDA3MjA2ODExQjM0QkRCMTI3QTg3OTlBMCIgeG1wTU06RG9jdW1lbnRJRD0ieG1wLmRpZDpDQjg3OEJGRTM4M0YxMUUzQTZEMUI0MDIyQjJEMDFGNSIgeG1wTU06SW5zdGFuY2VJRD0ieG1wLmlpZDpDQjg3OEJGRDM4M0YxMUUzQTZEMUI0MDIyQjJEMDFGNSIgeG1wOkNyZWF0b3JUb29sPSJBZG9iZSBQaG90b3Nob3AgQ1M2IChNYWNpbnRvc2gpIj4gPHhtcE1NOkRlcml2ZWRGcm9tIHN0UmVmOmluc3RhbmNlSUQ9InhtcC5paWQ6RDY1NjNCMTEzNDIwNjgxMTgwODNGMTQ4QTZCNTMyNkQiIHN0UmVmOmRvY3VtZW50SUQ9InhtcC5kaWQ6RkE3RjExNzQwNzIwNjgxMUIzNEJEQjEyN0E4Nzk5QTAiLz4gPC9yZGY6RGVzY3JpcHRpb24+IDwvcmRmOlJERj4gPC94OnhtcG1ldGE+IDw/eHBhY2tldCBlbmQ9InIiPz4OgPucAAAu90lEQVR42uzdCZgdVZk38IohgUCAlqZlh7DvO8qmgiCgILK4MKIo4oLjOA6ozKjo5+7ngqLgjDrgKCiyysinA4gMBMK+yg6yhR3sdGjCkkAI+d7jLZyekKW7c2931anf73nepxoe6K56z7l17//WNmbu3LkFAAAAMLrGCOgAAAAgoAMAAAACOgAAAAjoAAAAgIAOAAAAAjoAAAAgoAMAAICADgAAAAjoAAAAIKADAAAAAjoAAAAI6AAAAICADgAAAAI6AAAAIKADAACAgA4AAAAI6AAAACCgAwAAAAI6AAAACOgAAACAgA4AAAACOgAAACCgAwAAgIAOAAAACOgAAAAgoAMAAAACOgAAAAjoAAAAgIAOAAAAAjoAAAAgoAMAAICADgAAAAjoAAAAIKADAAAAAjoAAAAI6AAAAICADgAAAAI6AAAAIKADAACAgA4AAAAI6AAAACCgAwAAAAI6AAAACOgAAACAgA4AAAACOgAAACCgAwAAgIAOAAAACOgAAAAgoAMAAAACOgAAAAjoAAAAgIAOAAAAAjoAAAAgoAMAAICADgAAAAjoAAAAIKADAAAAAjoAAAAI6AAAAICADgAAAAI6AAAAIKADAACAgK4LAAAAIKADAAAAAjoAAAAI6AAAAICADgAAAAI6AAAAIKADAACAgA4AAAAI6AAAACCgAwAAAAI6AAAACOgAAACAgA4AAAACOgAAACCgAwAAgIAOAAAACOgAAAAgoAMAAAACOgAAAAjoAAAAgIAOAAAAAjoAAAAgoA+3IWPGaMJi6OnqHheLlaNWL2vV9K+juqNWGFBLRS0TtVzUklFLL+JXz456bsA/PxM1q1w+Xf78bPnzjKjpUX1R08qfX/7nh3v7+2YaKXJg/w0AIKAL6KQgvlYstojaIGr9staLWiO1seKr3x/1WNRDA5b3Rt1XLh+NEO+FgYAOAICALqBXLoyvHYsdo7aP2rKsrow3eVYZ1O+Iui3qlnJ5TwT3F80IBHQAAAR0AX2kAvlGsdgr6vVRO0etYmb8LbjfFHV91NXl8o4I7S9pDQI6AAACuoDejkA+MRZvKUN5qjXMhEF7MuqyqEujLom6IQL7HG1BQAcAQEAX0AcbypePxd5R7yyXSxn9tkg3o/tj1PlR50ZY/4uWIKADACCgC+jzhvJXxWKPqMOi9o8ab8Q7Kp36fkXUmVG/ibD+iJYgoAMAIKA3OKBHME+nrH8k6tDC6eujlqWiLoz6ZQrsEdZnaQkCOgAAAnpDAnoE8+1icWTUQVFjjW5lpNPgfx51XAT1B7UDKrG/fHMs9otatgar2xt1Wuw/rjdyfx27SUXrC+hJNVjd54vW/UpOd78SMnwtjovFe6N2KupxlubDUSfHa/HPRm90yaMCevYBPXaQ6YZvn43axYhWWvpwdkrU1+LN4R7tgFHbZ349FkfXbLXTJTSHxb7jpIaPXQoCf4iaWLNV/33Ufp4CQmbhPN1/Z7earXo6o/Ht8Vr8o1EU0AV0Ab0TO8ddU9grWo9Ho15B/fioL8UbxAztgBHdb24Si9tquvrPRK0S+41nGjx+N8di85qu/sExdqd6FZLJa/HwWPykpqt/f9S68XoUigT0SniVFmSxU9w26oL48WLhvJbS5QdHRN0a47iOdsCIqvM+Mx013rLB733L1jicJ2/w8iMjb6zxuq8dtaohRECnHR9OVohK31ZeW7Tuzk69pRv4HacNMKKWrvn6j2vw2I0196AylrEvhfZYQgtqGczTFysfjfpm1Kt1JCuvz2ieplOHt4laP2qDonXzrXTEb8mop4vW6bkPRd0VdXvU1b39fTNNAQAABHTqEnpS2El3AN9ZN7L0QI3nZvr2Od2g8O+ido9aaYi/4vn4HVfF8pyoUyOsP246AAAgoFPF8JPuXvfxqO8UTovL2ZQazs0VY/HpqA9HrbgYvyodWd+lrO/G7z0vlt+IoH6VaQEAQBO4Br0eAWiVWKTHP/xIOM/eZTWalxOj0hdGU4vWY/1WbOOvT9eWvi3qyvgbk6O2MjUAABDQGe0QlO6KeWPROmWY/F1ak3l5YCzuiDqq6PyNYdIR9evib/4wahlTBAAAAZ2RDkBjoj4VP15UDP1aXurp/t7+vkcrPi+XKp8c8Juo1UfwT6cj6p+Muib+/qamCgAAAjojFYLSaeynRX2vqP9jZBi8KRWflz2xuDzq8FFcjU3KkH6A6QIAgIBOp0NQOlp+cdS7dUNAr9C8XCcWVxatx6aNtvQF1lmxTh82ZQAAENDpVAhaLxZXRL1ONxrpsorOy9WK1pdG61Zs33VCrNuhpg0AAAI67Q5Bmxet04fX0Y1G6u3t77uzgvNy+VicH7VmRft2YqzjPqYPAAACOu0KQdsXrSOUr9GNxppSwXk5Jha/iNqswn1L92j4dazruqYQAAACOosbgraLxQVR3bohoFdMumv6/jXo3XJRZ8RraZxpBACAgM5ww3k6rf28MmDQbJdVbG5OisX/rVH/0s3rjjKNAAAQ0BlOAFo7Fn+IWlE3Gu/ZqBsrtk7HRU2oWR+/EK+rtUwnAAAEdIYSzlcsw/kqukG4vLe/b06F5ucbY7FvDfuYvlD4iukEAICAzmDDz/hY/DZqfd2gVLXrzz9f416+rzw9HwAABHQW6cSonbWBASpz/XmE2y1isVeNe5nu6n6kKQUAgIDOosLPEbE4RCcYYHbUNRVan/dn0NOD3dEdAAABnYWF83Rd73d1gnlc39vf91xF5mjaH7w3g56mezzsZWoBACCgM7/gkwLDqVFL6AbzuLRC65IeVbZyJn3d29QCAEBAZ95wPiYWJ0etqhvMR5VuELdrRn3dzdQCAEBAZ15/H/VWbWA+5kZdUaH1yenmhRv2dHWvYIoBAFAnTrnuoAgIG8biGJ1gAW7r7e+bXqH12Tiz/m5SVOgO+QP2C+l+FOkU/DpcTvBS1KNR58ZcvcJLFgBAQK9rOE9nJ/wsaoJusABTKjRf075g3cz6u0HVAnr0edtYXFzU7+ylz8W6bxUh/RYvWwCAznGKe+d8vPC8cxauSjeI6y7y+8JulQqu04413e++yv4MAEBAr6Weru50Q7hv6gSLUKWjuxMz7G8Vt6nOX4Is5SULACCg19H3o5bVBhZiam9/38MVWp8c56vLSwAAENCbrKere9dYHKQTLMKUiq3PrAx7/KJpBgCAgN7ccJ76eaxOMAhVu7v4Mxn2+BnTDAAAAb25Do3aShsYhEsrtj59Gfa41zQDAEBAb6Ceru7xsfiyTjAI06LuqlSS7e+bGYtHMuvzvaYaAAB14jno7XNY1Bra0BHpWuJny59nD/h5XhPLOZ1ueFblL58ui0A8t4Lr9eeo1TKaN3d56QAAIKA3THn0/PM6MWQvRN1dBsOpUQ9FpTubTy8rnXY9PcLsM8Mcl65YLBO1/IBaMWrlcrl61JpRa5XBdOwIbfeUio7HdVFvymRuTSvnFAAACOgN89HC0fNFmV0GwMujboi6MYXzCN9zOvUH43f3xyLVIk/djjC/RBnSU1hfN2qLqM2jNotaqSEB/aKoozKZb5dU9CwFAAAQ0Dslgt2SsThaJ+brzqjzos5Nwby8zrmSYt3SafQPlHXpPGPcE4sto3aI2jlqx6J1NH440un5N1a0DenO8umshvEZzL0LvfwAABDQm+fgonXKNC33R50SdXqE3ltz2KDYjt4y8F1YBvZ0ffvGUbtF7Vkulx7kr7u1/DKgitv5TGzbOfHju2o+ZKm/Z3kpAgAgoDfPEVpQpFOJfxv1kxRiI+i9lPPGltt3W1nHl/cgeH3UvlEHFK3T5BfkPyq+eb/MIKCfG2M0zcsSAAABvUEimKUbam3R4BakI5UnR30nAlFj75gd255OC7+orCNjXmwdy/3LsL75gP/0h1EnVHxz0iUJ6fFk69Z4SH5k7wQAgIDePE0+en521GcjnN5tGrwisKdrzFN9KcL62rHcNOquOvQqnX4f6/zdonU2RB1dHdvwR7MQAAABvUEixKQjjPs2cNPTkfKPRQiabBYMKvCma/Lvr9lq/zzqn6PWqWHLv2zWAQBQV6/SgmE7PGpMg7Y3XXf9jagthfO8lafs/2MNV/3sWPfzjSAAAAJ6g/R0dY+NxSEN2uT0HPE3Rfj5QtTzZkAjQnp6NN4ZNVrl9Lx7N2wEAEBAb6A9iuY8Wi09E3yrCGyXGvbG+VjU1Jqs60dijj5kyAAAENCb59CGbGd6JNgeHlnVTDHuT8bioKiZFV/VY2NdPfccAAABvWl6urq7itYjtHL37Qg9HyqvR6a5If2aWLy7aN2DoIpSMD/KSAEAIKA3UzqiuGTm2/jVCGafNdSUIf33sXh/BUN6uk7+vbF+c4wSAAACejO9K/PtS6cLf8kwM09IPyUW+xXVOd395Kj9neEBAICA3lA9Xd0rxGKXjDfx11GfNtIsIKSnI+lviLpvFFcjHS3/XNShsT6zjQoAAAJ6c+0TtUSm23ZV1Acj9Mw1zCwkpF8fi22iThuFPz81atdYh2+Zp6NiOS0AABDQq+SATLfriah3Ol2YQYb0p6LeEz++JereEfiTaV5+M2qT+LuXGQHvFwAAPnA1XE9X94QykOQmHYl8TwSfR4wyQwzqf0ihOeqwDgX1WVHHRa0ff+voqJm6DgCAgE6yV9SEDLfruAg+FxtehhnSX4j6efy4YdRbo04tg/XiuDbqk1FrxO/+p6gHdRoAgCZYQgsGLcej53dFeZwa7Qjq6eZt56fq6epeKpY7Ru0etWXUxlGTosbO53/ti7oj6vaoKVEXxu96XEcBABDQWZjdM9ymwyMMzTK0tDmspzl1cVl/E8G9KxbLlkH96VTuewAAAAL6kESwWDMW62W2WadHOLrE6DKCwb0/Fv06AQAA8+ca9MHZLbPteS7qM4YVAABAQK+bN2e2Pcf39vc9bFgBAAAE9LrJ6Qj6s1HHGFIAAAABvVZ6urrT46NWyWiTftTb3zfNyAIAAAjodbN9RtuS7ph9rCEFAACoHndxb1ZAP623v+8JQwoAAKOrp6t7xbSISsuVorqjJhStg6jLDfhP50Y9Vf6cLldNn+d7o/qi/lI+KQcBvTFel9G2/NBwAgDAiIXwJWOxSdQWZa0btU7U2lET2/Q3nonFfVH3Rt0cdWvU9RHc7zcCAnqOL6gtM9mca+NFeoNRBQCAjuWHSbHYKer1UTtGbR41tsN/duKALwAOGLAu6Sj75VH/nSqywB1GSECvu62jxmWyLScZTgAAaGsgXzoWe0btUS7Xq9LqRe1fVlrXe2JxTtTpEdavNXoCeh29NpPtmB11muFkGG86yxad/9Z3cb0QbzLPGa2OWyrmQ9co/e0XY4yfMQQAVOTz0fJl6D2wDOVL1WTV05cHn04V23BnLH8RdWK8x/YZVQG9LrbNZDvO9cJjiG886U3nB1Fr1WR9b4rFP8Q8v9zodcy/lDVaY3xVLD4WY3yToYAFvk7GxOLQMjgsX4NVnhU1OeqH8dqeWcN+bxWLTxata4nHVHx1003Ezoz6dfR6rlfLsMY7HbDYO+r9UW+rUShfkI2ivhX15di2U9LPMTfuMdICetVtkcl2/KehZAhvQPvUcM6ke0VcEOu+ZdXeXGKd0nVhry/rQDNs2HaI+mP0c2NfOMIC/Tjq8Jqt815R+8Zre9d4bc+u0XvlbrE4v6jXpZD7RW1TtI6gMvixXq18XX04apUMNzF90fChqMNiW8+I5RfjtXi3kR89noO+4Bdj6s1GGWzKS1G/N6IMwXdrut7pGrCPVmDfsULUflHHRKXru9JRi/Oijo7a2PRavPZGvUcbYL77ns1rGM5ftlMNX9vHFPW8T9GnYq6s7xUzqNfU1lG/jh+nptCaaTgfKJ0FclDUbbHd3x/Fy9oazxH0BZtUtJ5DWHeXOdrEEN6MJtY8RK4zCj1bORZvLGuXqE2L6p/qWPd9M/BKW2ew/ifr94hIl3A6Qrrg9/XtY/G5onXGQROlL56OjDo4evGJyBFnmRUCelVslsl2/M5Q0qB9QsfXv3x8yhvKMJ6WG5g25ihUQN3PivTF5shZSgvm+/6ezpxNZxG+TTf+aqWoM6MvZ8fyIxHUp2uJDzqjbZNMtmOyoYTFfsMeGMjX1BUAyEq6Wdo7i+o/uWY0pPvnvDY+Dx0UIf1K7RDQBfTF82TUDYYShhTIVy7fpF8O5CvpCgBk7SAtWKg1oqaUp7z/RDsEdAF9+C6NF9FLhhIGHc7Ts0x/EzVRNwAA/iadXfDj+Ky0YSw/ExljjpZ0hru4L9ikHAK6YYRBh/N0Td6vhHMAgAU6Iurk8rnwCOgj9kE9fUDvzmBTrjaaMGjp2bA92gAAsFAHR50dmWm8VgjoI2VSBtuQTm3/k6GEQfMmAwAwOG+P+pUj6QK6gD54t/X29z1rKAEAgA54V9QPtKG93CQu34B+vWEEyN6JPV3dzzR02x21ARh9n4j3oQd6+/uO0QoBXUBfuFsMI0D21tUCAEbZtyOk3xgh/b+1YvE5xT3fgH6nYQQAAEYgU54RIX1NrRDQO2WNDLbhdsMIAACMgBWK1uPX5EsBvSNWqvn6z4x6wDACAAAjZJeoT2mDgN4Jr6n5+t/d29831zACAAAj6Bs9Xd0baYOA3jYxoZaJxYSab4aj5wAAwEgbH/Vv2iCgt9PKGWzDg4YRAAAYBW/q6er+O20Q0NulJ4NtcAQdAAAYLd+LkD5BG4bOc9AF9NFrdOtF+4moXaOWMfUW6vmom6OO7e3ve1Q7AACosFWj/iHqGK0Q0BdXDqe4P1KDcJ6uT7koagdTbtD2jDokeve6COkuYwAAoMo+G59bT4jPrU9pxeA5xf2VujPYhmk1WMdDhfNhSY8A/KI2AABQg1z1SW0Q0BfXxAy2obcG67idqTZs22oBAAA18I+uRRfQmx7QX+zt75teg/Ucb6p53QIAkLV0f69DtMEH/cXRVfP1n2YIAQCAivhUT1f3GG0Q0Ier7kfQ+wwhAABQERsWrac2IaA3MqA/awgBAIAKOUwLBHQBHQAAYPS9o6eru0sbBPQmBvQZhhAAAKiQdCf3g7RBQB+Oun+z87QhBAAAKuYALRDQm8gp7gAAQNXs3tPVvYI2COhDtXzN13+WIQQAACpmiaj9tGHRTeJ/84w+AABgsJ6Muj3qnqiHoh6N6i9rZvnfpAOj3WWtGrV51GZR6zWsV2+P+rkpI6ADAAAsrrlRt0RdHnVZ1JW9/X33D/eX9XR1rxGLvaP2j9qryP9g4W6xzUtEz140lQT0pnCTOBie57WgFvq0AIBR+Izw31HnRP0uwuVj7frF8bvSEfefporgum4s/znqQ1FjM+3lclHbF60vOJgP16C/Ut2vQZ9jCGFYboh6Qhsq7zwtAGCEXBn1kajXRJDeJ+rf2xnO5xPW7406PH7cMurqjPv6ZlNLQAdY1Jti+nb8fYWzUKoqnVJ4dIzTdVoBQAelJyL9W9TG8Z6zU9SJUTNG+DPJbbHYOerbAnrzOMUd4H/eEC/s6epeP358W9RqRfu/xNyhaF1fVkeXRE0epb+dbrJzYYzPrWYpAB2SLqH6XtRP4v3myQp8JklnxX42PpekG8/9tMjrwOq2rkMX0I0pMNg3xHSa+8868bvjzeiIGgf0ydGbL5shAGQmHTFPR6qPjfe5Zyr4ueTE+PyQbhz37xn1fELUVlHOipsPp7jnZ6IWAADAoLwjQvDXqhjOB4T0E2Lxrcz6vr2pJ6ADAAAMVJenuHwhakpGfd/R1BPQAQAAaqe8Jv3QqFmZbNKWRlVAH6znar7+EwwhAABkF9Lvi8U3M9mcjXq6uscZVQF9MGbXfP2XNoQAAJClY6Mez2A70o2tNzScAnoTLKsFAACQn/Jmdt/PZHM2M6IC+mDU/Xl87uIOAAD5Snd1fyaD7djEUArog1H3ye4UdwAAyFRvf19/LE7PYFPWM5oCehM4xR0AAPJ2UgbbMMkwCuiD8WzN17/bEAIAQNYuj3qs5tuwjmEU0AdjhoAOAABUVW9/30uxOKfmm7FST1e3R0QL6Iv0VM3Xf3xMdDeKAwCAvF2QwTZMMowCeu4BPVnJMAIAQNYujppb821Y2TAK6IsyI4NtcJo7AABkrLyb++013wwHFuexhBa8Qg5H0FczjACN8O2oOxu67emxov9qCgANd1XUpjVe/9cYQgF9UXI4gr66YQRohPN7+/smN3HDe7q6uwR0gOJPNV9/p7jPwynur5TDEfQ1DSMAAGTvlpqvf48hFNAXZXoG27CGYQQAgOzV/Rp0984S0BfpLwI6AABQdb39fb2xeLrGm+Dx0AL6Ij2SwTZsWIN1nGaqAQDAYru/xuu+rOET0Bfl8Qy2obunq3uFiq/jGaYaAAA0Or84gi6gL1xvf186svtCBpuyUcX7fE0s/j5qllkHAADD/2hd43V3BH0eHrM2f+lbqLrfCX2DqCsqHtJ/0tPVfWb8uH3U+BH+8/9euGskAAD191iN173L8Anog53kdQ/om9ZhJSOk98Xi3JH+uz1d3T8wzQEAyIB7O2XEKe7z92gG27CNYQQAgOw9UeN1H2f4BPTByOFO7lsbRgAAyF5/jdd9acMnoA/GPRlsw6t7urrXNpQAAAACuoA++rYzlAAAkLV+LRDQc/fnTLZjZ0MJQKaW1wIABPRmmBo1J4PteKOhBCBTY7QA4K+e0wIBPWu9/X2zY/FABpuyZU9XtyMMAACQrxe0QEBvgrszGd/XG0oAAAABvc5yuQ79rYYSAABAQK+z2zPZjr0NJQAAgIBeZzdksh1r93R1b2w4AQBApquY2YZPQB+sW4o87uSe7Gc4AQAgS8vVeN3dgV5AH5ze/r6Zsbgzk805yIgCAAAVM0sLBPShyOU09616uro3MpwAAICALqDX1Z8y2pb3GE4AAMjOMjVe95mGT0Afiusz2pbDerq6xxpSAADIypI1XvfnDZ+APhTpFPeXMtmW1QuPXAMAgNzU+SZxzxo+AX3Qevv7no7FjRlt0uFGFQAAsjKhxus+w/AJ6EM1OaNt2dsz0QEAICt1PsVdQBfQGx3Qx0T9iyEFAIBsdNV43Z8yfAL6UF0RNTej7Tm4p6t7TcMKAABZ6K7xujuCLqAPTW9/3/RY3JzRJo2L+pKRBQAAAX2UOYIuoA/L5My259Ceru5NDSsAAAjoo2ia4RPQh+PCDMf9O4YVAAAEdAFdQK+bi6Kez2yb0h3dDzS0AABQayvVeN2fMHwC+pD19vc9F4uLM9y04yKkL2eEAQCgfuKz/BKxWKXGm+AIuoA+bL/PcJtWizrG0AIAQC2tHjVWQBfQm+g/M92ujzjVHQAAamlSjdd9dlSvIRTQh6W3v+/RWFyd6eadGCF9klEGAAABfYQ8EhlrriEU0BfHmZlu16ujzomQPtEQAwCjYJwWwLCsX+N1f9jwCeiL6/SoXL/l2SLqlxHSxxpmAGCELaMFMCxbCegCemP19velSTQl403cP+qnEdLHGG0AAKi8rWu87g8aPgG9HX6V+fZ9KOoHQjoAMIKW1gIYmvi8np5/XudHrN1vFAX0dkinuT+X+TZ+smjdOM7p7gDASOjSAhiy19Z8/e82hAL6Yuvt75sRi7MasKmHRf3GjeMAgBHwai2AIduz5ut/jyEU0NvlhIZs535RV0VIX9eQQ+O5gRPQSWtoATQqoL8Q9ZAhFNDbore/77JY3NyQzd006sYI6e838tBoK2kB0Ml9THzWWEobYHDi9bJmLDas8SbcHZnqJSMpoLfTvzZoW5eNOil2BOmU99UMPTTS2loAdNimWgCD9o6ar//thlBAb7d0N/e+hm3zgVF3REj/TNQEUwAaZRs3jgQ6bCstgEGr+9mttxhCAb2tevv70p3cf9zATU9H078bdVd8WP9o1JJmAzRCegTSjtoAlTUzg23Y1TDCosXn752K+n+hJaAL6B1xfNSshm57upnLT6Omxk7iC1GrmA6wSE/VfP3fZQihsp7PYBv2jM8TPpvCov1zBttwk2EU0Nuut7/vL2VIbbKVo74W9VC8qf4+6pCo5c0OmK+5NV//Q+P1vZxhhEqakcE2vKao/2OjoKPifTidzbZfzTcjHbCYajTnbwktWGzfjvp41LiG9yFdm7pPWbNj53F5LP8YNTnqht7+vlE70yDWJY3NBlGbR21XtE6hW9PUZRRMr/n6p3D++ajPGkoQ0DskfaY6v+IBaWnTjVGaeym7/SiDTbk6ssFcIyqgd0RMrsfixZKOon9CN/5mXBmCdy3/OQX2O2OZ6o5yeV9qX9QT0cNnh7mTSmFhmTI0rFi0HgPVU7S+gV+rDOHpztOTzHUE9LY5Ml57Z8Xr9jrDCQJ6B+ybjhDGPubKigakPQpnT+Zm7xjXK2LOvVCDdf1y1DYZ9Pwa005A77RvRH2wDIvMP7BvXtb83uzS0fVpUXOK1jX98x5t7xrw81JlnydqKzX0ZAbbMD7qrHjdvj4+zDxsSKEycnqyzAmxj9luNM++m89nlY2L1lmT+5pq2Tkqav8Y4/8TyzOq+mzuWL90H5ijM+n5VabdgrkGvQ3ihfx4LI7ViWFLoXv1onXUe8OoLeeptQbUSsI5NTY9k+1Ir8XJ8WFhHUMKlfkskgL6C5lszqZlSB9TgVC0WdQvi9Ydp4XzfK0fdWrUrTHeH6jaU4pifdKjjk/JpNfp1ParTTkBfSR8J+oJbQAWIn2ZNzuTbVk36rr40HCAYYVK7WNy8b6oE2MfM34UwtCrot6Sbn5bBvO0LmNNr0ZIZ0r8IurBGP+vRK07ysF8bNQX48ezinzud3Vzb3/fNFNNQO+4mGhPF62bJwEsaD+RvjV+MKNNenXU2fHh4XdRWxthGHWPZrY9h0VdGvuXzUcoDK0f9c1yP31e0brxLc2U7meUTnm/J+bElVGfGOlHCpfPOk/3Yvhq1JiMejvZ9Fo416C31y+iDo96nVYAC/BA0Tr6nJO3pYoPExfHMp0Kek5vf990Qw0j7p6oHTLbpu2jboz9y8mxPD72LTe2MQAtVfYr3fgtPbZqU1OI+dihrONjzqQzKi6MuiBqynBvdLyQOZku49w76qNRu2fazwtNKQF9xKSbSsQL62Px47WFU6GA+UtPMNgt0217U1lpX5g+RF9RtE4PTU9ueCzq0dhPPreADyXpaHx6CkN3uUxHKlYu/zk9qeGRqJ/F/3+fKQQLDeg5Sp+p0s14P1g+FSYd3U6Pc70p7VMHc1Ov+P9WKFqPXE33utmqaB1MSWf+TDBtGIKXb3p8ZPlel55OlJ5q8vJTiqaW73W9g5iTae6tX9Zm5WeD9IzznB/d/GLUpaaRgD7SIT19y3t8/HiEbgDzcWsDtjFdPrVtWfN+IEmLpwb8qxS+B3vq3j/F/79X7GcvN41gvu5twDZuVNaR5T/Pif3CX2KZqn+e/zY9BWb5ovWF35KmBx14r9u0mM+ZFzEn55TvdU+X/yot07+bUM7JrobOycnxHj7D1BHQR0N6BEI65XM9rQDmcbMW/PXDyXCkRyym5w9vpoVg/1IaWwbwVQw/FZuXK5TF//i9Fiyam8R1QHkKZ7qxyVzdAOZxqxYslk17urp7tAHmK51m+4I2ABV1jhYI6KMZ0qfE4hidAObZN6Tr0qbqxGJZRgtgvvuX9BjH23QCqKAbYh/l84+APuq+EHWjNgDzmKIFQIdcpQVABf1aCwT0Udfb35dOMzuo+J8bRAAkl2kBLDZPS5k/d0gGqiZd9nuqNgjoVQnpdxet69EBXnaRFsBiW1YLBHSgHp97IhM9qg0CepVC+lmx+I5OAOU+IT2r+C6dADqwf0kfgm/XCaBCfqoFAnoVfT7qXG0ASr/TAsD+Bcjc41G/1QYBvXJ6+/vmxOLgwjOQgRZvVoCADuTuhPIJEwjolQzpT8Vin6hHdAMa74qoe7QB6IArox7UBmCUzYr6sTYI6FUP6Q/H4i1R03QDGr0vSHc0PUkngA7sX16KxSk6AYyyX8T+6DFtENDr8MZ5a9E6kj5DN6DRUkCfow1AB5ysBcAoSp9vvq0NAnqdQvo1sdhTSIdG7wceisUZOgF0YP9yZyz+qBPAKElHz6dqg4BetzfPq4V0aLzva8GQvaQFMCjHawEwCp6L+qI2COh1Dum7FK5Jh6buA64rPIJxqHypCYPzX1F/0gZghH3PtecCet0/oKc3z52i7tMNaKTPRc3VBqDNny/S2SZf0QlgBD1QuPZcQM/kTfTuWOwQdbVuQONe/zfH4pc6AXTAOVHXaAMwQv4+Ptc8qw0Cei4f0ntjsWvh0SjQRJ+Jmq4NQJs/W6Szcz5ZOEsH6LzTYp9znjYI6Lm9kc6Kel/8+OmoF3UEGvPaT1/QHaUTQAf2L+nsvBN1Auig9GSaj2uDgJ7zm2m6s/Oboh7RDebhKGu+fl60TkcFaLd0ls6D2gB0QLrfxXsjvzypFQJ67iH9slhsGfVb3WCAn2lBtq/5dArqYVEP6wbQ5v1LevrBBwqPKQTa7/Oxj5miDQJ6U95Q+6IOKD+0P6UjjfZE1LtjPrhHQd6v+XSGxIFRM3UDaPP+ZXIsjtYJoI1OiX2Lu7YL6I18U02nvm4UdbZuNE66F8EPojaMeXCmdjTi9X5tLN6vE0AHpA/S3kvI3b1RP9aGjrsy6sPaIKA3+UP741HviB9TPaYjjXBB1BYx7kdGOYOiWa/3swo3WwHav29Jl9IcEnWJboyom8tiZNwdcz29hx4a9Zx2dMT1UW9NN7jWCgHdm2t/XzqKvkHU16O8KPKUnlm7e4z1XlF3aEdjX+vp2/9/0gmgzfuW52OxX+H56CMhXft/RNS2UZO1Y8TcW871k2KxQ9RtWtJWt5bh3MEjAZ0Bb67PRH0xfly/8Nz0nKRH4bw9vZnE+F6kHcQ8OC4WH4qaoxtAG/ct6YP1noUj6Z2S9tnppq4bRK9/GJUuV7tHW0bMfQPm+i2x2C7qGO+lbXF51BvKx8MioDOfN9iHy+emb1N4PFOdXVy0volMwfx35SmI8PLr/D9isW/hRpFA+0P6W6PO0I22Smc6bh79/XDUEwP+/d1aM2LunWeuz4o6Kn7cPuoG7Rm29GSpPaOX/VohoLPoN9kbo/aPH7eKOj1KwKu+2VG/ito6xm63qPO1hIW8xs8rWkcAbtENoI37lvTEiL+L+nLhEWyL68Ko16b7BS3g8rQ/a9GIuX0B8z1dN/26qI+lf9SmQUu54ktRB0YPXdMvoDPEN9qbotIb7SZF6+6Vz+pK5TwYlS5PWDPG6pCoP1Vo3ep+6tezmb++0+mR6dv/Hxa+hAPat2+ZG/WV+PHNhZvQDse5UTtHD/eIum4h/93Uwg3LRkK6P9N9C5nvc6J+WrQuE/2Wz8qLlM4CSWd5ftUZngI6i/dme2d598pVi9bNSVz3NLpeKFqnBe0TtXaMzdfTXfkrOG+eLur9/O0ZDXhtz4xKr+ndotxAEGjn/iVdbrVp1M91Y5HSWXAnR20Vfdsn6opB9DedoXC71nXc7SmED2I8nor6XPy4btH64tuNl18pXf6yafTpD1ohoNO+N9sZ6eYkReuu77tG/UcTQkyFpDfs9EXJKjEOB0SdW75BV9nkGvf75ga9ttM4bRn1maJ516a38zVU96NZsxu8f637h+lKHrWLfcuTUYcVrS8B/1Qwr3Q08WtF6yy4D6QzF4f4/1ehp89nPp+vHeKcf6L84nvNqK9G9Znmf71fQvri6aAo/RDQ6dAbbjp97ZKodDfolYvW9Wa/K3xb2G5zy1CebkSybvQ7nfL246jpNdqGrxf1vA4xHfn/bcNe17Ojvhc/Tio/MDbhy7dp6YvHNv6+KUV9LxdIZ7zcVDRX+gBZ59OxL634/iUdTU+PBvtAMc8Ntxr63p7uA/KOqDWiN/9nMc6Cu6QC23J1B37v5AqN138Nc873RqXrrNcoWteoN/Fmcn3lZ9jN0kElH+tHx5i5c11K8L8aMmZMo7a3p6t7mVjsVbSeh5ruEv1qs2BYwTC9Mf2/FBCreOr6MOZF+hCS7mHQU5NVTt/cfzB6f2aTJ2KM23Kx+HDUJ6LWznQzj45x/mab+5aOmHyxZn1IX6IdVj7jt8lzPr1v/SZqXM1WPT115cAanFH1cp+XiMU7oz4V9doGTbF0VtavU8VYPdSmXi4Vi8uK1pcfo+GrZQht9xwZV36Jsfsoj9lJsX2HtnG70jilg1sHRy2f8VxPX3amx7r+KD3KeaT/uDwqoAvoC94JjS1ad4neo9zB7hi1pFnxyv1I0TpF7YKyLo+d2fMZzocJResZuenNabmKrmbqe7or7jkxBtNMzb+NXTo7arfyQ0UKMMtk8JpLpyz+IuonnbhJTfQs3RwrfVG5bA36ke48fFp5N2Lzvat741gcUrTuuVJ1aZ81OeqMwVwjW9F+pztgpy8C351pYEmh/JxyjG7tUA8nll92vHme99cUjF4cxq9MX1Iv6nKXJ6POim36rw7OjfRFTnr0705R40d43NLlShdF/aZD7xFLlp+J0rx/e4U/Fw1VOpPn36LOTmfljdqbvDwqoAvog94ZLR2LHcpKO9t09+gVG9iKdIQ83ZX1yhTG0zKdBmWGUJPXcfqiZe8yqL8laqWarPoDRetU0PTYovN8AQOV27ekwJJufJoe8fq2or5n4KX3+HREOx39TWfB3W90GcTcf2PROgM1hfbNa7YJ6UuoU4vWF71Tq7BC8qiALqAv3k5pvaL1rPV0c6otyuVaGW1i+vY6fWN+S7kDuybqhtiBvWj0yeD1m3Zw6Q7NO5WVzpLZoCKvu3RWytXla+7Kdp1OCozIviWdgZdOfU9HhHcpWl/sT6zo6qYjrensk3Tk8MJyf/O8UWQx5v8qReustfSe+rryc3KVLrtJNzZMX0Kdnyrm+8NV66E8KqAL6O3fMaVTQtcra4OyJkWtXtb4iq1yCtvpw//UovWczPRt+W1F62ZLUz3jkYa9fleIxWbl63bjAa/hVTvwATvdLPHustKjH28u6z6vO8hqv5Ius9mkaF0itUW5j0mPskpf6C8xgquS9jm3l5XOhEtfAt5W18sLqM38T0fYty5rw7I2Kud/J4PG3PLzbfpMe0v5ufaqmO/3Vb1n8qiALqCP/I5qpTKovyaqu2jdRX7F8ufl5qkU9scOWA4mIKRHTKVvv2eWP6fTz/sG1F/K5aNlKH/YEXEY1Gt36TKop9dwT/l6XLZcvnxde3rdvvxEkHTDq3SH9ReK1jWR6bWXvrlPN595ND1zVleh0fuU9L6+WtH6En+d8ud0avwK89TL7/1pPzNuwM+zy/3Ly9dqzygrvb8/Xu5rUqW7zt/u8VBUbP4vVc79lcrPwi9Xen9duqzx5XLcgDn/8iPsnivnfnqCx/Ty8+4T5dxPB5vSQaYX6tgbeVRABwAAAAEdAAAAENABAABAQAcAAAAEdAAAABDQAQAAAAEdAAAABHQAAABAQAcAAAABHQAAABDQAQAAQEAHAAAABHQAAAAQ0AEAAAABHQAAAAR0AAAAQEAHAAAAAR0AAAAQ0AEAAEBABwAAAAR0AAAAENABAAAAAR0AAAAEdAAAAEBABwAAAAEdAAAAENABAABAQAcAAAAEdAAAABDQAQAAAAEdAAAABHQAAABAQAcAAAABHQAAABDQAQAAQEAHAAAABHQAAAAQ0AEAAAABHQAAAAR0AAAAQEAHAAAAAR0AAAAQ0AEAAEBABwAAAAR0AAAAENABAAAAAR0AAAAEdAAAAEBABwAAAAEdAAAAENABAABAQAcAAAAEdAAAABDQAQAAAAEdAAAABHQAAABAQAcAAAABXUAHAAAAAR0AAAAQ0AEAAEBABwAAAAR0AAAAENABAAAAAR0AAAAEdAAAAEBABwAAAAEdAAAAENABAABAQAcAAAAEdAAAABDQAQAAAAEdAAAABHQAAABAQAcAAAABHQAAABDQAQAAQEAHAAAABHQAAAAQ0AEAAAABHQAAAAR0AAAAQEAHAAAAAR0AAAAQ0AEAAEBABwAAAAR0AAAAENABAAAAAR0AAAAEdAAAAEBABwAAAAEdAAAAENABAAAgD/9fgAEAKcxisFjVfn0AAAAASUVORK5CYII=;" vertex="1" parent="zcFH50ofNuThb92pxpb8-3">
                    <mxGeometry x="64.38967741935484" width="268.2903225806451" height="109.99903225806452" as="geometry"/>
                </mxCell>
                <mxCell id="zcFH50ofNuThb92pxpb8-2" value="" style="shape=image;verticalLabelPosition=bottom;labelBackgroundColor=default;verticalAlign=top;aspect=fixed;imageAspect=0;image=data:image/png,iVBORw0KGgoAAAANSUhEUgAAAPAAAADwCAYAAAA+VemSAAAACXBIWXMAADddAAA3XQEZgEZdAAAAAXNSR0IArs4c6QAAAARnQU1BAACxjwv8YQUAABiOSURBVHgB7Z2/cxtHlsffG0BnytqqxdpeexWZqiXvSO+WCGWXCcw2s5ztRaKyyyRll4nMLpP0F4jKLhMZXiQou8xDl21qTboMZ7pbn01XnS3aBKavXxOwYRk/Zgbzo9/M91NFE6IJkQL62+9Hv36PCAAAAAAAAAAAAAAAAAAAAIBfwQRUsrbWXh40qGWYWmxoefR1M/Z4EszUk89RRCfcsB+GThoDOnn+POwRUAcE7CHLy+3WhUtOiG1DIlCzYYXZYvmzFSzZx5QHTCf27+7ZRyd2KwiJg2/tzw2DgHpHn4QhAe+AgEtGxNq4SB0OrGAjc53PRbtMfiIi7lkzfiDCvmA/YLnLBQIumNU/tUWgHbGq1tp1PBZrLOwC6hkRdsDP7OMuLHWxQMA5I7Fqv0E3xLraV7uTm/vrC+dueJcD3rexdRcWOl8g4BxY+XO7Q4PofSa+od3CLsq5hTZ71Aj2jz8OuwQyBQLOiJFobXy4VXkrmxJ28TN1TcCPIeZsgIAXwIk2iq7bl/EORJuMkZgbEe/AzU4PBJwQyRo3L9GWjWnft3/sEMiC0MbMD8++o71eLzwhEBsIOCYuexxFN+Ei54hNgNkFuQerHB8IeA7nsa25R7C2RdOlBu8gVp4NBDwFCNcPXKwc8I49X94l8Csg4FewrrLEt/fqfvzjGxDyZCDgIWJxeWAeQbh+AyH/ktoLGK6yTlyBSINv1T1Grq2AXYkjm0cE4aqGmXbrnLWunYDdOe7r0W0yvE2gOrDZ7n8fPKzbOXKDasQf19s3mhfME/tu3yBQMbjTuEB/ffOdy99+/fcXtbkRVQsLDHe5XtTJra68BV5dv3o7Cug/7MM1AnWhHTFtvfH7yz98/dWL/6IKU1kLDKsLhnSbhm9V1RpX0gL/49rVm4OA9ghWF9i8pWG6UdXYuFIW2GWYL0b33PU+AF4lMA/63wU7VcpUV0bAcluIIvMElVRgFlIA0jC8WRWXuhIutCSqrHB37cM/EACzaVUpwaVewCvrV+/bfXXbPlwiAOIha+Uvb7zzTuvrv//3f5Ji1LrQwyzzE/uwTQCkJ7RZ6g+0utQqBezGirB5ingXZIHmuDggZcjtoX5gPoR4QVbIWrLe3IdSakvKUBUDS7LKvtpSVYV4F2TNkrXEf7XJrW81JbfUCHhl7eo9Yv53AiBf/vLG2++QTW49IwWoEPBQvNsEQCFwR4uIvRewOyZi/jcCoFB0iNhrAa++t/HIvpD/SgCUAnfefPsPy1bE++Qp3gpYxGsMbREA5dL2WcReCnhYXQXLC3zBWxF7J+BhwgoxL/CNto8xsVcCRrYZ+I1/iS1vBAzxAh34JWIvBCwdNAzzAwJABdx5663Lvf/96sUBlUzplxnOx3aaDwkAXZxwwJtHn4Sltukp9TKD3CqSLhoEgD5asnbdGi6R0iyw9K+6cBG3ioBu5Cri2Uu+VlafrdIscPN1TAIE+pE13Lzo2heXQilJLJdxRqEGqA5rZWWmC3ehh+M8nxIAVaPBm0WPOy1UwGiFAyrOSdPwtSJb8zSpQIajTpapTNim/w3/lHAwbFo2kGkR0MfwvTT2s30PT1imMJBZpvJoDdf4JhVEYRbYj0or7h4fhr96cd1EhyVq21dDPq6zMW14CZ7hRMqhFeozK9jwgqFwkqVbWbMhGpcdovFdu84KKUwqRMDDFrBfUMnY3frW0fNwN873SoFJFNFWQOZ9iLkkxMIS75mIHvdPKYx7VLOyviEC7lCZFBQP5y5gn857+y/5d2nO687HttAd626/D3e7CLjLAT0++4720rxfK+vtOzY4uk8lUtT5cO4CHt7t9WDYGO9bt2ahtqFuM1qiG9aU34NVzhhrbY3hx2xo7/j5YpZruW1Doh/MN1Q2gXlw/MlHdylHchWwT0dGSdznOKyutbcg5AyQ2Dbih9ZFfpCltfLCjRZydqVzrcTiQXkVKq/SIOpShshmcHR4cEU2BnGXCCTjPCm10/+er1iLu525q2nYi+t+ogHx3CgnchOwZJ29sU48OWOZBRBycph5txnxtVyE+zNd8gBXavk65RZC5uJC+5J1HmGIH35+GBYSh9tjjG0b+9xGsmsS3LWvy86iMW4cXBz8o12DnrwPTcNX8jAiuRRy9AObATTkE10qCLEqdgPbHTBtGzI3KSPscUpPzj/tjntiX9ovXeFCYB8PqMcNOmkMyFmy01M6mWXVxJ1bWqLWoEEt+1y3uO3zl41xHy1metctejbtzBa/HAdFfDfLHMQ8emF4svLeRo88mV6ZV4FH5hbYHrlsmcif2FfggK+VcfFahmXZc+T7sUMJiQutUO2bEloxHdjn9aYVLBSBy7pfomV7Hr7M7ISwIV8mY2KLQryfwUvaLuO6nX39HzBZb8gT7GvxgfUE9yhDshfw+sYXvmVmjw8PSu084txqm7F+9etiVe1/uvZDEi5h2d0d4vJT5Vpgs7yGrk+y1pIPsMdCt4pwl6fhw3nwOHmcDWfqQnuVuBph3U4qmZFb3Q/oibWsz4KAwrRFCj4w/L27NBaanLdGcsc2Url20C/J6o4jHkzpPaPGGEtobVNGZPbv8/em0eT6Z1B9fEumDjnpv+QrWW1umR0jDQI/ixps7NYjUEtOl8hHD6eV5bFSJgKWnc7XOUYuYwtqiWSiyUeMuZ1VM7xMBCzWlwDwEE+La1pZaWZhAftsfQHwFdFMFlZ4YQHD+gKQjjNePBZeSMCwvgCkh8ncXPSiw0IChvUFYCEWzkinFrDz340H9y3nYHCpoNZ4f1/bZqQXscKpBTxoUEfDZfaA6bcEaoncSCL/WcgKp3ehIx3us6H4hfegWlz4Tke3FDbpb62lErDcstHSSobhQteWqKljjYqWXPupFKQSMGd4zzVv5MXJs6UJ8JfhFUgdDNJ5tIkFPDx8vkGKaP5G0RsJssOYDdJDJ42hSSzgPusSryPyP1sOcoB1ve9pklmJBexTh4PYGHOdQK1YXW1n1xKoINIksxIJWObOKO2D3EEcXC9MU5/XlSaZlUjAHOhJXr3KhUsKXX+QHta5Vs0g2TpN5kIrqLyaivRuArXAFXAYnYnLpCc8sQWs2H12d0IbEe0QqAVykV8a7ZNOWknc6NgC1uo+O/Ea3iyrNSsoB9eD2rDKTTuJGx3fhVbqPkcDvgvx1hPpBkqejFhJQhI3OpaAJSWv0n1m3vn8s2wbaQNd9F/jDxTOrIrtRscSsLmgL4Mrb9rxp24HBjVG4mGjMR6OWXwUz4VWWAghcS8BQM6V7sqIF9JETM3NFfDwTmWHNGFdZ8S9YJzBa7StzJWOVXw0V8CNH3SJV96k/vf0gAAYQ1zpiPguKaJxcb724rjQHdKEPTrQOnMI5MtwMmCX9NCZ9w1zBcysJ/4V61vkDFqgEEVnw3G0N1PA6krSlB7cg+IYjjvtkgas9ubFwTMF3DzVI15YXxAbRRv9vGYUs13oQFH8C+sLYiJWWE1GerCIgBWd/zYUlsyB8jCGH5MOOrP+52wBq2kKxvs49wVJ6C/pOGpkmt3Xa6qAhwksFV0s2BDqnUEihrODu+Q587qqThWwpgTW2SkEDNLA+6SAWQUd011oPe5zF4UbIA1NJZ4bz7gJOFXAiq4PqthFgX9I3kRDNpqZpsbBUwU8L3j2hgaFBEBq+Bl5zqz5Xupd6OOPXWUNAOkI/E9kzZrvNV3AKjLQ3CUAFuFH/z24WZnoiQJ2Xe0VYP9hBwTAApxd0lGRtbRE8QVsGkrOf/X1OgKe4VrQKlhHZ1NC2okC5oaauao9AmBBNKyjIEhigY2S4d0NwvkvWBgm/pI8Z5ompwlYhQvd7MMCg8WJyH9DME2TwZQvqhDw6SksMFgcZv/XUcD024lfn/RFe3D8LikAJZQgE4wKC7w86euJB3wDUDU4UODJsYnvQrPSKYQAVBVOEgMDAHQwOQZmHUksAOqCoSQWWMkxEgBZoKTuoXoudJzZMQBUGdUCnlbgDUBdQBIL1B4tlYeTUC3gfhPHXWBxtFQeTkK1gM0ALjRYHC2Vh5NQLeBpV6wASITiY9PJAlZQ3C1oufYIvGeZ/GeiJieXUioo7haYSK3rAzxCQRKLkwhYC9YC/44AWAAt/d+mMa2UUokFVtK7GniLlv5vhrg36evTSil1xMBzBj8BMBc1I4QmM+U6of89gkZcuIREFkgPsw4vjnly+6iJAtbQI2gM1TsoKBctJxmRoW8nfX2yBVYSAwtRBAGDheiQAqZpcpqAe6QE6wJdJwBSsLLW7pASkrnQkSIX2lAbiSyQCkUJLJNEwBeMrpGdzd/AjQZp0OO9TSuumijg0yVd/ZbNgG4QAElhHfGvcPRJONGoThSwloFPIxAHg6S4+FfPPeCpBnVqKaWWaiwH4mCQELu+FXltPDWknSpgNqxq9m7zIm0RADEJyLxPSpg1BzuY8SRViSxS9IaAchH32SgaXjArnJ0l4B7porP6J903S0AxcGBukiYalNyFHrxGXVKGMchGgxgYPdlnof9/KQQsmWgtnTl+wpjbSGaBWVgvbUub+zxrCufsC/1GnRVuNV+nOwTANCJzjxRhaHYyeY6AdWWiBTbK4htQGNqsr4NnJ5PntdTpkjLkDZI3igB4FWXW1xHM1uBMAfeXtB0lnWMicx+xMBhHpfWl2QksYaaAh4ksjSJGLAx+iUbra7U3K4ElzO1KaQw/I43YjPTaWnuZQO1ZWbt6T6P1jaO9OG1lu6STVp/NIwK1xm3izNukk+68b5grYI0FHWN0VtbbcKVrzIDNU1LK4GUGAnZxsF4rbDH3UGJZT1bWr97X6Dqfw9158a8QbzKD1jj4nJZNYDxBVrperK5fvW1FoNn72o/zTXFHq3RJMbILNy+aJwRqgXhcRm/c6+AgnuaYYrLy3sY3ijoYTCYwD44/+egugcoiSSuJe/W6zuf1z0eHB1fifG/s4WY2pf2YtBPxnZX3ruo7DwSxqIJ4HczduN8aW8BsaI+qgOFtiLh6VEa8FhNQbGMZ24UWKuFGj4A7XRncKYNNVFZBvEncZyHRfOBKuNEjxJ1e3/gQ1Vq6+eN6+4Yx1bC8jgTus5BIwJVxo3+mLW4XRKwTKZFksqcLVfEKKZn7LCRyoYXV9Y0vKrPbjcNm+/jTj3YIeI9suMMy2Q5ViKTus5DIAguVcqPHkeTW+gassedIgUY/MB9SxcTrMJzYgCQWcH+JHlB16did/Qtkqf1j5c/tjmywhvhBlVzmcRopCqYSu9CCvJBUxR1wDNeLN+Cdo0/CXQKl4Y6HAnPPmKo37uf948MwcVfVxBbYkcLUa0PifBOZRxLzo0VP8YhwV9/beCQeUfXFS2J+U3m2qSywkO+ZMHdlnEQQ/NwNxETUElHZX3jD/qlDBTOyyI0BdZ8/D3sEckFcZRq47hkdqglpklcjmpSWiB/azG2msaL8QxqGN+cJxLlV8gbbn19URtz9HGuR+/aXtJZhNzK8//lhWLVjtVKQm2LN1yO5PXTDird+Vz8X8GhTW+Dltn3RfzRfZGqFmXeOPw23kzxldc26twUKeRxnlZm6JuDHxx+HXQKxcUdBDbphN0WZadWhmiJr6OwlX4tz93fK89OzstbeztgKd48PDzYpIbKZNH6gbXuof5vKQqZYGOpywHKPM5w2kLmuOCv7G2rTILKC5Y79EposkNgs3j36NLxFKVlIwM4K/2C+oSxZoKBCrLEJzH0fjhlkZ3UTHgN+Jt0FpT1o2l1WIy7MaVDHRNEGBDudpuEri+RUFhKwsLre3jWU8TSEBUTs+a0UscpWxCbkIDgwTD3NwharurRErTOmNgc2wWjMhs0Yt+2qWq7qWW2WLGp93d9BCzIsa/uCsiYwD/rfBTtpFrfSq2V7/Zd8S4OY5QIBSykjRLoQi1pfoUEL8tVXL07e/P1lSYFn6yIZ/ufGBfrr7y5f/vKb/3nxPMlT5Xd6+63L+9bCycG494tM3G37Zv7L8XH4ghTwzVcvnr/x5uWL9hfvEEiFWN/PDsOFy5IXtsBCblZ4CDPtNiLeSbpbud5Ixjz12lLY5Fcz4msaz5ZX3tuQm0CJq4dANtZXSFeJ9QruF8mxOksqcdJc+3OZ4IHnVWMm+cbkC/1/4FvuKA0kQqxvVu95JgIW3CWHHAeCSzybRsTHfwsfGOKH5CW8d3wYqr0cIj3DjeGFkjB1wxUrRZSZUclMwK4BfJSvUEYiTtrjefCanBH7ZymahtS39Dl+7gpYugRiYZgfZ+lxZSZgQaxw3kJJ0+PZR0uRpRtVOjW43JIFoo2klYbzyFTAIpSIuAir0ln509X7SZ7gLAX70xIoSzeqbGCFY5LDRpepgIVhgX+X8kaa0snNlQT4k3Th6t1oghWeA+8dPc/+bnnmAhaaBbmrPDCPksTDvrjSbJI1LtPA0MOpTaloUvLKd+Qi4LyPlUa4ePhSlOgyhVtoEZeaPGpU1N2sbL+0ReH8jgpzEbBQRELLkcKVlqOl8ly+CrrPP9Ml8AvySFyNk5uAC3VXB8mvNFpLvF2GiKXTCFUU5cPg8yHgDyhHchOwIO5qQUUUnTR9q0oScZcqimzaqMz6GVn7ed8Lz1XAQlFFFCYy99MM8R6KeLOohRcEVV/gqofBZ4asp8FL2qacyV3ABbrSrebrlGoiu3gKDSfivJMw3K16pw6540yAZD0VcTU0dwELhWV+jbmdxgoLklg6Ogy35JZIpkK2RytSdSVW/vgw3KSKwxBwrlnnX/0oKpBiGsLz3SwuCIw6X1qLcjNpG1u7AfQion0ZBtc/rVcrHXfZn5KVulYL7ha5UadvK5vmh1lX2s21yfV+rutyuLCAhzvorny4hmxLrlWMfLTsrvfuL34i0ZdDyxOefUe9Ogn2VYI+9Uyhq8ofztsiU6GFQoVaYGFlrS39nJ9SnjSsu4o2r6WQd3MHnzED/uDzz4rtFV5IDDyOi4fzProZZNtwHoC52Li3aPEKhQtYcEc3+d4M6iStzgIgNcx7eVZbzaIUAQu53wyCFQYFIGu4/32xce84pQlYzocb+RZQdFbW26nOhQGIw2iWV5lJy9IELLhMr9SK5nYNzdyHKw1yw67dsi+mlCpgQSqTOM8ij4F5krQRHgDzYHsk6kNVXekCFlyngvwy06003SwBmIrNOOfRXSMNXghYyPNmkFz8t2eTH6a5sQTAL0gxAjdPFh6tkiVff/Wi+8ZblzmnkR1LMkXgjXfeab395uW/yfgVApnz1lt/aEVM1UweeiZewRsLPEIsca53iCO+Iy41rDFIglxw8U28QuGllHFZXb+6a4Wc7djSV3BHWAHvNAZU5TY3hVLFUkoRr9xUIw/xVsBCESIeY48D3s9LzKMkWtU3iqoJ2GfxCl4LWFhZa2/bnH2hVVVimY0M42Y+MIZCbtBJs0+901M6mXRoPxp0PWhQK4poOQioZZ+3zGTeHR94bTcIOXrYpQpTJQH7Ll7B+4tfEhNbEVORIh4OBreiMzfcDjcg6tsHzYvuTvPEZ/TlU3S+I5rop7/nlQdADXJU5GHM+yreJbEmUVYHSVBTPMw2T0OFgAUn4pIbsoM6wHe1iFdQI2Bh2JB9EyM8QOZI7zLDt7TNa1YlYEEaAjQjvob+wyArZC0x86Yv5ZFJUCdgQY5iGueWuNItWkEhhLKWtLb7VSlgQUR8/OnBNSS3QFqk4q//kjc1n82rFfCIn5JbiItBIvju54fhHe0dRNULWJDkFuJiEAcX7wZ8TVuyahqVELAgbtDZa3ytoGFqqZDqLALlwbx39pKvVWm8TaVacEufLfvpzupaO5TKrWFFFSiQvo+vuYRXxhVnVMLqjlMZCzyOHAcUM6wM+A+7Y8equMyvUtkhGMPM4pa1xl1Y4xoysroVFe6ISlrgcWCN60i1re44tRhDBWtcE2pidcepvAUeR6zx0eHBFRR/VA9XlPE9X6mTeIVaCXiEFH9kPsgblATLsLzNKhRlpKGWAhbErZZuC9zna6ip1ocr2rHClWHabuJlTamtgEccHYWh1FTLVTJUcilgeO1PQqE6C3dE7QU8YhQfQ8ieMkxQSZyr8dpfXtQiC52E4eLYtRnrLcN006ZHOgRK47zBoCSoaLeOMe48IOApjIS8stbuMNOWIbNwe1uOqm/Z+0sUNn+gDJDkFMkMoi6BqXjfVtYXpF3qgGnbWuTrac+RJfNdhwbyK+sbT+2nDiXl3E0W4T5EfBsPCDgFqdxrRZ0OF0W8FmLzNP4zOLSi3e+f0gO4ycmAgBdArPIZ052AzPuzrLLEcHJOSTVi5Z/adygw96d+g7W2xvBjNrQHa5seCDgjxOpYqyyN4M87v7sFSl/WeYGONjj3mjC17E52YvMJPRPRY2ttQ1hbAAAAAAAAAAAAAAAAAAAAAAAA4Jf8P8WdqoAaqCHmAAAAAElFTkSuQmCC;" vertex="1" parent="zcFH50ofNuThb92pxpb8-3">
                    <mxGeometry y="22.80487804878049" width="64.38967741935484" height="64.38967741935484" as="geometry"/>
                </mxCell>
                <mxCell id="JbaJO5PRv0PnmUyhNAog-1" value="&lt;font face=&quot;Noto Sans JP&quot; style=&quot;font-size: 24px;&quot;&gt;リモートリポジトリ&lt;/font&gt;" style="rounded=0;whiteSpace=wrap;html=1;fontStyle=1" vertex="1" parent="zcFH50ofNuThb92pxpb8-3">
                    <mxGeometry x="40" y="120" width="234" height="40" as="geometry"/>
                </mxCell>
                <mxCell id="zcFH50ofNuThb92pxpb8-4" value="" style="shape=mxgraph.cisco.computers_and_peripherals.pc;html=1;pointerEvents=1;dashed=0;fillColor=#036897;strokeColor=#ffffff;strokeWidth=2;verticalLabelPosition=bottom;verticalAlign=top;align=center;outlineConnect=0;" vertex="1" parent="1">
                    <mxGeometry x="120" y="440" width="78" height="70" as="geometry"/>
                </mxCell>
                <mxCell id="zcFH50ofNuThb92pxpb8-5" value="" style="shape=mxgraph.cisco.computers_and_peripherals.pc;html=1;pointerEvents=1;dashed=0;fillColor=#036897;strokeColor=#ffffff;strokeWidth=2;verticalLabelPosition=bottom;verticalAlign=top;align=center;outlineConnect=0;" vertex="1" parent="1">
                    <mxGeometry x="690" y="400" width="78" height="70" as="geometry"/>
                </mxCell>
                <mxCell id="zcFH50ofNuThb92pxpb8-6" value="" style="shape=mxgraph.cisco.computers_and_peripherals.pc;html=1;pointerEvents=1;dashed=0;fillColor=#036897;strokeColor=#ffffff;strokeWidth=2;verticalLabelPosition=bottom;verticalAlign=top;align=center;outlineConnect=0;" vertex="1" parent="1">
                    <mxGeometry x="760" y="210" width="78" height="70" as="geometry"/>
                </mxCell>
                <mxCell id="JbaJO5PRv0PnmUyhNAog-2" value="&lt;font face=&quot;Noto Sans JP&quot; style=&quot;font-size: 24px;&quot;&gt;ローカルポジトリ&lt;/font&gt;" style="rounded=0;whiteSpace=wrap;html=1;fontStyle=1" vertex="1" parent="1">
                    <mxGeometry x="20" y="520" width="222" height="40" as="geometry"/>
                </mxCell>
                <mxCell id="JbaJO5PRv0PnmUyhNAog-4" value="" style="endArrow=classic;html=1;exitX=0.463;exitY=1.011;exitDx=0;exitDy=0;exitPerimeter=0;" edge="1" parent="1" source="JbaJO5PRv0PnmUyhNAog-3">
                    <mxGeometry width="50" height="50" relative="1" as="geometry">
                        <mxPoint x="410" y="430" as="sourcePoint"/>
                        <mxPoint x="200" y="520" as="targetPoint"/>
                    </mxGeometry>
                </mxCell>
                <mxCell id="JbaJO5PRv0PnmUyhNAog-5" value="&lt;font style=&quot;font-size: 24px;&quot; face=&quot;Noto Sans JP&quot;&gt;&lt;b&gt;①リモートリポジトリをコピー&lt;/b&gt;&lt;/font&gt;" style="text;html=1;align=center;verticalAlign=middle;whiteSpace=wrap;rounded=0;" vertex="1" parent="1">
                    <mxGeometry x="280" y="480" width="360" height="40" as="geometry"/>
                </mxCell>
                <mxCell id="JbaJO5PRv0PnmUyhNAog-6" value="&lt;font style=&quot;font-size: 24px;&quot; face=&quot;Noto Sans JP&quot;&gt;&lt;b&gt;②ローカルポジトリで作業&lt;/b&gt;&lt;/font&gt;" style="text;html=1;align=center;verticalAlign=middle;whiteSpace=wrap;rounded=0;" vertex="1" parent="1">
                    <mxGeometry x="20" y="565" width="360" height="40" as="geometry"/>
                </mxCell>
                <mxCell id="JbaJO5PRv0PnmUyhNAog-7" value="" style="endArrow=classic;html=1;entryX=0;entryY=1;entryDx=0;entryDy=0;" edge="1" parent="1" target="JbaJO5PRv0PnmUyhNAog-3">
                    <mxGeometry width="50" height="50" relative="1" as="geometry">
                        <mxPoint x="40" y="520" as="sourcePoint"/>
                        <mxPoint x="130" y="470" as="targetPoint"/>
                    </mxGeometry>
                </mxCell>
                <mxCell id="JbaJO5PRv0PnmUyhNAog-8" value="&lt;font style=&quot;font-size: 24px;&quot; face=&quot;Noto Sans JP&quot;&gt;&lt;b&gt;③リモートリポジトリに反映&lt;/b&gt;&lt;/font&gt;" style="text;html=1;align=center;verticalAlign=middle;whiteSpace=wrap;rounded=0;" vertex="1" parent="1">
                    <mxGeometry x="-90" y="280" width="332" height="40" as="geometry"/>
                </mxCell>
                <mxCell id="JbaJO5PRv0PnmUyhNAog-9" value="&lt;font style=&quot;font-size: 24px;&quot; face=&quot;Noto Sans JP&quot;&gt;&lt;b&gt;他の作業者&lt;/b&gt;&lt;/font&gt;" style="text;html=1;align=center;verticalAlign=middle;whiteSpace=wrap;rounded=0;" vertex="1" parent="1">
                    <mxGeometry x="720" y="470" width="170" height="40" as="geometry"/>
                </mxCell>
                <mxCell id="JbaJO5PRv0PnmUyhNAog-11" value="" style="endArrow=classic;html=1;exitX=0.999;exitY=0.784;exitDx=0;exitDy=0;exitPerimeter=0;" edge="1" parent="1" source="JbaJO5PRv0PnmUyhNAog-3">
                    <mxGeometry width="50" height="50" relative="1" as="geometry">
                        <mxPoint x="640" y="240" as="sourcePoint"/>
                        <mxPoint x="750" y="240" as="targetPoint"/>
                    </mxGeometry>
                </mxCell>
                <mxCell id="JbaJO5PRv0PnmUyhNAog-12" value="" style="endArrow=classic;html=1;entryX=0.995;entryY=0.833;entryDx=0;entryDy=0;entryPerimeter=0;" edge="1" parent="1" target="JbaJO5PRv0PnmUyhNAog-3">
                    <mxGeometry width="50" height="50" relative="1" as="geometry">
                        <mxPoint x="750" y="250" as="sourcePoint"/>
                        <mxPoint x="700" y="300" as="targetPoint"/>
                    </mxGeometry>
                </mxCell>
                <mxCell id="JbaJO5PRv0PnmUyhNAog-13" value="" style="endArrow=classic;html=1;exitX=1.003;exitY=1.008;exitDx=0;exitDy=0;exitPerimeter=0;" edge="1" parent="1" source="JbaJO5PRv0PnmUyhNAog-3">
                    <mxGeometry width="50" height="50" relative="1" as="geometry">
                        <mxPoint x="590" y="350" as="sourcePoint"/>
                        <mxPoint x="710" y="380" as="targetPoint"/>
                    </mxGeometry>
                </mxCell>
                <mxCell id="JbaJO5PRv0PnmUyhNAog-14" value="" style="endArrow=classic;html=1;entryX=0.976;entryY=1.012;entryDx=0;entryDy=0;entryPerimeter=0;" edge="1" parent="1" target="JbaJO5PRv0PnmUyhNAog-3">
                    <mxGeometry width="50" height="50" relative="1" as="geometry">
                        <mxPoint x="700" y="390" as="sourcePoint"/>
                        <mxPoint x="653" y="378" as="targetPoint"/>
                    </mxGeometry>
                </mxCell>
            </root>
        </mxGraphModel>
    </diagram>
    <diagram id="FTzvvbEC-Aggca-JEd31" name="repositry">
        <mxGraphModel dx="869" dy="1094" grid="1" gridSize="10" guides="1" tooltips="1" connect="1" arrows="1" fold="1" page="1" pageScale="1" pageWidth="827" pageHeight="1169" math="0" shadow="0">
            <root>
                <mxCell id="0"/>
                <mxCell id="1" parent="0"/>
                <mxCell id="M-gXhoJ8hV_ww1YfNes5-1" value="" style="rounded=0;whiteSpace=wrap;html=1;strokeColor=none;" vertex="1" parent="1">
                    <mxGeometry x="80" y="220" width="420" height="260" as="geometry"/>
                </mxCell>
                <mxCell id="NlthfbIa5XaBGx-r-ra6-1" value="" style="shape=mxgraph.cisco.computers_and_peripherals.pc;html=1;pointerEvents=1;dashed=0;fillColor=#036897;strokeColor=#ffffff;strokeWidth=2;verticalLabelPosition=bottom;verticalAlign=top;align=center;outlineConnect=0;" vertex="1" parent="1">
                    <mxGeometry x="110" y="310" width="78" height="70" as="geometry"/>
                </mxCell>
                <mxCell id="NlthfbIa5XaBGx-r-ra6-2" value="" style="endArrow=none;html=1;" edge="1" parent="1">
                    <mxGeometry width="50" height="50" relative="1" as="geometry">
                        <mxPoint x="210" y="400" as="sourcePoint"/>
                        <mxPoint x="210" y="320" as="targetPoint"/>
                    </mxGeometry>
                </mxCell>
                <mxCell id="NlthfbIa5XaBGx-r-ra6-3" value="" style="endArrow=none;html=1;" edge="1" parent="1">
                    <mxGeometry width="50" height="50" relative="1" as="geometry">
                        <mxPoint x="450" y="400" as="sourcePoint"/>
                        <mxPoint x="450" y="320" as="targetPoint"/>
                    </mxGeometry>
                </mxCell>
                <mxCell id="NlthfbIa5XaBGx-r-ra6-4" value="" style="endArrow=none;html=1;" edge="1" parent="1">
                    <mxGeometry width="50" height="50" relative="1" as="geometry">
                        <mxPoint x="210" y="400" as="sourcePoint"/>
                        <mxPoint x="450" y="400" as="targetPoint"/>
                    </mxGeometry>
                </mxCell>
                <mxCell id="NlthfbIa5XaBGx-r-ra6-5" value="&lt;font face=&quot;Noto Sans JP&quot; style=&quot;font-size: 24px;&quot;&gt;PC&lt;/font&gt;" style="text;html=1;align=center;verticalAlign=middle;whiteSpace=wrap;rounded=0;fontStyle=1" vertex="1" parent="1">
                    <mxGeometry x="114" y="390" width="70" height="30" as="geometry"/>
                </mxCell>
                <mxCell id="NlthfbIa5XaBGx-r-ra6-6" value="&lt;font face=&quot;Noto Sans JP&quot; style=&quot;font-size: 24px;&quot;&gt;リポジトリ&lt;/font&gt;" style="text;html=1;align=center;verticalAlign=middle;whiteSpace=wrap;rounded=0;fontStyle=1" vertex="1" parent="1">
                    <mxGeometry x="214" y="400" width="200" height="30" as="geometry"/>
                </mxCell>
                <mxCell id="NlthfbIa5XaBGx-r-ra6-7" value="&lt;font style=&quot;font-size: 18px;&quot; face=&quot;Noto Sans JP&quot;&gt;〇〇を追加&lt;/font&gt;" style="rounded=0;whiteSpace=wrap;html=1;" vertex="1" parent="1">
                    <mxGeometry x="220" y="340" width="100" height="30" as="geometry"/>
                </mxCell>
                <mxCell id="NlthfbIa5XaBGx-r-ra6-8" value="&lt;font face=&quot;Noto Sans JP&quot; style=&quot;font-size: 18px;&quot;&gt;変更履歴&lt;/font&gt;" style="text;html=1;align=center;verticalAlign=middle;whiteSpace=wrap;rounded=0;fontStyle=1" vertex="1" parent="1">
                    <mxGeometry x="220" y="370" width="100" height="30" as="geometry"/>
                </mxCell>
                <mxCell id="NlthfbIa5XaBGx-r-ra6-9" value="&lt;span style=&quot;color: rgb(63, 63, 63); font-family: &amp;quot;Noto Sans JP&amp;quot;; font-size: 18px;&quot;&gt;✕&lt;/span&gt;&lt;span style=&quot;color: rgb(63, 63, 63); font-family: &amp;quot;Noto Sans JP&amp;quot;; font-size: 18px;&quot;&gt;✕&lt;/span&gt;&lt;font style=&quot;font-size: 18px;&quot; face=&quot;Noto Sans JP&quot;&gt;を削除&lt;/font&gt;" style="rounded=0;whiteSpace=wrap;html=1;" vertex="1" parent="1">
                    <mxGeometry x="220" y="310" width="100" height="30" as="geometry"/>
                </mxCell>
                <mxCell id="NlthfbIa5XaBGx-r-ra6-10" value="&lt;span style=&quot;color: rgb(63, 63, 63); font-family: &amp;quot;Noto Sans JP&amp;quot;; font-size: 18px;&quot;&gt;△&lt;/span&gt;&lt;span style=&quot;color: rgb(63, 63, 63); font-family: &amp;quot;Noto Sans JP&amp;quot;; font-size: 18px;&quot;&gt;△&lt;/span&gt;&lt;font style=&quot;font-size: 18px;&quot; face=&quot;Noto Sans JP&quot;&gt;を削除&lt;/font&gt;" style="rounded=0;whiteSpace=wrap;html=1;" vertex="1" parent="1">
                    <mxGeometry x="220" y="280" width="100" height="30" as="geometry"/>
                </mxCell>
                <mxCell id="NlthfbIa5XaBGx-r-ra6-15" value="&lt;font face=&quot;Noto Sans JP&quot; style=&quot;font-size: 18px;&quot;&gt;ファイル&lt;/font&gt;" style="text;html=1;align=center;verticalAlign=middle;whiteSpace=wrap;rounded=0;fontStyle=1" vertex="1" parent="1">
                    <mxGeometry x="340" y="370" width="100" height="30" as="geometry"/>
                </mxCell>
                <mxCell id="NlthfbIa5XaBGx-r-ra6-17" value="" style="sketch=0;outlineConnect=0;fontColor=#232F3E;gradientColor=none;fillColor=#232F3D;strokeColor=none;dashed=0;verticalLabelPosition=bottom;verticalAlign=top;align=center;html=1;fontSize=12;fontStyle=0;aspect=fixed;pointerEvents=1;shape=mxgraph.aws4.folder;" vertex="1" parent="1">
                    <mxGeometry x="340" y="270" width="20" height="18.2" as="geometry"/>
                </mxCell>
                <mxCell id="NlthfbIa5XaBGx-r-ra6-18" value="" style="sketch=0;outlineConnect=0;fontColor=#232F3E;gradientColor=none;fillColor=#232F3D;strokeColor=none;dashed=0;verticalLabelPosition=bottom;verticalAlign=top;align=center;html=1;fontSize=12;fontStyle=0;aspect=fixed;pointerEvents=1;shape=mxgraph.aws4.folder;" vertex="1" parent="1">
                    <mxGeometry x="360" y="291.8" width="20" height="18.2" as="geometry"/>
                </mxCell>
                <mxCell id="NlthfbIa5XaBGx-r-ra6-19" value="" style="endArrow=none;html=1;" edge="1" parent="1">
                    <mxGeometry width="50" height="50" relative="1" as="geometry">
                        <mxPoint x="369.93" y="350" as="sourcePoint"/>
                        <mxPoint x="369.93" y="310" as="targetPoint"/>
                    </mxGeometry>
                </mxCell>
                <mxCell id="NlthfbIa5XaBGx-r-ra6-20" value="&lt;font face=&quot;Noto Sans JP&quot; style=&quot;font-weight: normal; font-size: 16px;&quot;&gt;〇〇.txt&lt;/font&gt;" style="text;html=1;align=center;verticalAlign=middle;whiteSpace=wrap;rounded=0;fontStyle=1" vertex="1" parent="1">
                    <mxGeometry x="380" y="310" width="60" height="20" as="geometry"/>
                </mxCell>
                <mxCell id="NlthfbIa5XaBGx-r-ra6-21" value="&lt;span style=&quot;color: rgb(63, 63, 63); font-family: &amp;quot;Noto Sans JP&amp;quot;; font-size: 16px; font-weight: 400;&quot;&gt;✕&lt;/span&gt;&lt;span style=&quot;color: rgb(63, 63, 63); font-family: &amp;quot;Noto Sans JP&amp;quot;; font-size: 16px; font-weight: 400;&quot;&gt;✕&lt;/span&gt;&lt;font face=&quot;Noto Sans JP&quot; style=&quot;font-weight: normal; font-size: 16px;&quot;&gt;.txt&lt;/font&gt;" style="text;html=1;align=center;verticalAlign=middle;whiteSpace=wrap;rounded=0;fontStyle=1" vertex="1" parent="1">
                    <mxGeometry x="380" y="330" width="60" height="20" as="geometry"/>
                </mxCell>
                <mxCell id="NlthfbIa5XaBGx-r-ra6-22" value="" style="endArrow=none;html=1;" edge="1" parent="1">
                    <mxGeometry width="50" height="50" relative="1" as="geometry">
                        <mxPoint x="349.92" y="365" as="sourcePoint"/>
                        <mxPoint x="350" y="290" as="targetPoint"/>
                    </mxGeometry>
                </mxCell>
                <mxCell id="NlthfbIa5XaBGx-r-ra6-23" value="&lt;span style=&quot;color: rgb(63, 63, 63); font-family: &amp;quot;Noto Sans JP&amp;quot;; font-size: 16px; font-weight: 400;&quot;&gt;△&lt;/span&gt;&lt;span style=&quot;color: rgb(63, 63, 63); font-family: &amp;quot;Noto Sans JP&amp;quot;; font-size: 16px; font-weight: 400;&quot;&gt;△&lt;/span&gt;&lt;font face=&quot;Noto Sans JP&quot; style=&quot;font-weight: normal; font-size: 16px;&quot;&gt;.txt&lt;/font&gt;" style="text;html=1;align=center;verticalAlign=middle;whiteSpace=wrap;rounded=0;fontStyle=1" vertex="1" parent="1">
                    <mxGeometry x="360" y="350" width="60" height="20" as="geometry"/>
                </mxCell>
                <mxCell id="NlthfbIa5XaBGx-r-ra6-26" value="" style="endArrow=none;html=1;" edge="1" parent="1">
                    <mxGeometry width="50" height="50" relative="1" as="geometry">
                        <mxPoint x="150" y="300" as="sourcePoint"/>
                        <mxPoint x="150" y="250" as="targetPoint"/>
                    </mxGeometry>
                </mxCell>
                <mxCell id="NlthfbIa5XaBGx-r-ra6-27" value="" style="endArrow=none;html=1;" edge="1" parent="1">
                    <mxGeometry width="50" height="50" relative="1" as="geometry">
                        <mxPoint x="150" y="250" as="sourcePoint"/>
                        <mxPoint x="470" y="250" as="targetPoint"/>
                    </mxGeometry>
                </mxCell>
                <mxCell id="NlthfbIa5XaBGx-r-ra6-28" value="" style="endArrow=none;html=1;" edge="1" parent="1">
                    <mxGeometry width="50" height="50" relative="1" as="geometry">
                        <mxPoint x="150" y="450" as="sourcePoint"/>
                        <mxPoint x="150" y="430" as="targetPoint"/>
                    </mxGeometry>
                </mxCell>
                <mxCell id="NlthfbIa5XaBGx-r-ra6-29" value="" style="endArrow=none;html=1;" edge="1" parent="1">
                    <mxGeometry width="50" height="50" relative="1" as="geometry">
                        <mxPoint x="150" y="450" as="sourcePoint"/>
                        <mxPoint x="470" y="450" as="targetPoint"/>
                    </mxGeometry>
                </mxCell>
                <mxCell id="NlthfbIa5XaBGx-r-ra6-30" value="" style="endArrow=none;html=1;" edge="1" parent="1">
                    <mxGeometry width="50" height="50" relative="1" as="geometry">
                        <mxPoint x="470" y="450" as="sourcePoint"/>
                        <mxPoint x="470" y="250" as="targetPoint"/>
                    </mxGeometry>
                </mxCell>
            </root>
        </mxGraphModel>
    </diagram>
    <diagram name="ページ1" id="bKnuMjbzQmjVjmZeVVog">
        <mxGraphModel dx="1260" dy="1586" grid="1" gridSize="10" guides="1" tooltips="1" connect="1" arrows="1" fold="1" page="1" pageScale="1" pageWidth="827" pageHeight="1169" math="0" shadow="0">
            <root>
                <mxCell id="0"/>
                <mxCell id="1" parent="0"/>
                <mxCell id="PUWf6aw_uJQOLZvcCYli-1" value="1" style="ellipse;whiteSpace=wrap;html=1;aspect=fixed;" parent="1" vertex="1">
                    <mxGeometry x="80" y="120" width="40" height="40" as="geometry"/>
                </mxCell>
                <mxCell id="PUWf6aw_uJQOLZvcCYli-2" value="2" style="ellipse;whiteSpace=wrap;html=1;aspect=fixed;" parent="1" vertex="1">
                    <mxGeometry x="160" y="80" width="40" height="40" as="geometry"/>
                </mxCell>
                <mxCell id="PUWf6aw_uJQOLZvcCYli-3" value="4" style="ellipse;whiteSpace=wrap;html=1;aspect=fixed;" parent="1" vertex="1">
                    <mxGeometry x="240" y="120" width="40" height="40" as="geometry"/>
                </mxCell>
                <mxCell id="PUWf6aw_uJQOLZvcCYli-4" value="3" style="ellipse;whiteSpace=wrap;html=1;aspect=fixed;" parent="1" vertex="1">
                    <mxGeometry x="160" y="160" width="40" height="40" as="geometry"/>
                </mxCell>
                <mxCell id="PUWf6aw_uJQOLZvcCYli-5" value="5" style="ellipse;whiteSpace=wrap;html=1;aspect=fixed;" parent="1" vertex="1">
                    <mxGeometry x="240" y="200" width="40" height="40" as="geometry"/>
                </mxCell>
                <mxCell id="PUWf6aw_uJQOLZvcCYli-6" value="6" style="ellipse;whiteSpace=wrap;html=1;aspect=fixed;" parent="1" vertex="1">
                    <mxGeometry x="320" y="200" width="40" height="40" as="geometry"/>
                </mxCell>
                <mxCell id="PUWf6aw_uJQOLZvcCYli-7" value="7" style="ellipse;whiteSpace=wrap;html=1;aspect=fixed;" parent="1" vertex="1">
                    <mxGeometry x="360" y="140" width="40" height="40" as="geometry"/>
                </mxCell>
                <mxCell id="PUWf6aw_uJQOLZvcCYli-8" value="8" style="ellipse;whiteSpace=wrap;html=1;aspect=fixed;" parent="1" vertex="1">
                    <mxGeometry x="360" y="60" width="40" height="40" as="geometry"/>
                </mxCell>
                <mxCell id="PUWf6aw_uJQOLZvcCYli-9" value="9" style="ellipse;whiteSpace=wrap;html=1;aspect=fixed;" parent="1" vertex="1">
                    <mxGeometry x="280" y="40" width="40" height="40" as="geometry"/>
                </mxCell>
                <mxCell id="PUWf6aw_uJQOLZvcCYli-10" value="" style="endArrow=classic;html=1;rounded=0;" parent="1" source="PUWf6aw_uJQOLZvcCYli-8" target="PUWf6aw_uJQOLZvcCYli-9" edge="1">
                    <mxGeometry width="50" height="50" relative="1" as="geometry">
                        <mxPoint x="470" y="120" as="sourcePoint"/>
                        <mxPoint x="520" y="70" as="targetPoint"/>
                    </mxGeometry>
                </mxCell>
                <mxCell id="PUWf6aw_uJQOLZvcCYli-11" value="" style="endArrow=classic;html=1;rounded=0;" parent="1" source="PUWf6aw_uJQOLZvcCYli-8" target="PUWf6aw_uJQOLZvcCYli-7" edge="1">
                    <mxGeometry width="50" height="50" relative="1" as="geometry">
                        <mxPoint x="450" y="120" as="sourcePoint"/>
                        <mxPoint x="500" y="70" as="targetPoint"/>
                    </mxGeometry>
                </mxCell>
                <mxCell id="PUWf6aw_uJQOLZvcCYli-12" value="" style="endArrow=classic;html=1;rounded=0;" parent="1" source="PUWf6aw_uJQOLZvcCYli-2" target="PUWf6aw_uJQOLZvcCYli-4" edge="1">
                    <mxGeometry width="50" height="50" relative="1" as="geometry">
                        <mxPoint x="100" y="280" as="sourcePoint"/>
                        <mxPoint x="150" y="230" as="targetPoint"/>
                    </mxGeometry>
                </mxCell>
                <mxCell id="PUWf6aw_uJQOLZvcCYli-13" value="" style="endArrow=classic;html=1;rounded=0;" parent="1" source="PUWf6aw_uJQOLZvcCYli-4" target="PUWf6aw_uJQOLZvcCYli-3" edge="1">
                    <mxGeometry width="50" height="50" relative="1" as="geometry">
                        <mxPoint x="220" y="140" as="sourcePoint"/>
                        <mxPoint x="220" y="180" as="targetPoint"/>
                    </mxGeometry>
                </mxCell>
                <mxCell id="PUWf6aw_uJQOLZvcCYli-14" value="" style="endArrow=classic;html=1;rounded=0;" parent="1" source="PUWf6aw_uJQOLZvcCYli-3" target="PUWf6aw_uJQOLZvcCYli-2" edge="1">
                    <mxGeometry width="50" height="50" relative="1" as="geometry">
                        <mxPoint x="100" y="270" as="sourcePoint"/>
                        <mxPoint x="150" y="220" as="targetPoint"/>
                    </mxGeometry>
                </mxCell>
                <mxCell id="PUWf6aw_uJQOLZvcCYli-15" value="" style="endArrow=classic;html=1;rounded=0;" parent="1" source="PUWf6aw_uJQOLZvcCYli-1" target="PUWf6aw_uJQOLZvcCYli-2" edge="1">
                    <mxGeometry width="50" height="50" relative="1" as="geometry">
                        <mxPoint x="70" y="260" as="sourcePoint"/>
                        <mxPoint x="120" y="210" as="targetPoint"/>
                    </mxGeometry>
                </mxCell>
                <mxCell id="PUWf6aw_uJQOLZvcCYli-16" value="" style="endArrow=classic;html=1;rounded=0;" parent="1" source="PUWf6aw_uJQOLZvcCYli-3" target="PUWf6aw_uJQOLZvcCYli-5" edge="1">
                    <mxGeometry width="50" height="50" relative="1" as="geometry">
                        <mxPoint x="80" y="280" as="sourcePoint"/>
                        <mxPoint x="130" y="230" as="targetPoint"/>
                    </mxGeometry>
                </mxCell>
            </root>
        </mxGraphModel>
    </diagram>
    <diagram id="1ZOgXC6w6snLwV7bs99L" name="ページ2">
        <mxGraphModel dx="403" dy="728" grid="1" gridSize="10" guides="1" tooltips="1" connect="1" arrows="1" fold="1" page="1" pageScale="1" pageWidth="827" pageHeight="1169" math="0" shadow="0">
            <root>
                <mxCell id="0"/>
                <mxCell id="1" parent="0"/>
                <mxCell id="c8MKWguthajJ-H5QnTWe-15" value="" style="endArrow=classic;html=1;rounded=0;" parent="1" source="c8MKWguthajJ-H5QnTWe-12" target="c8MKWguthajJ-H5QnTWe-8" edge="1">
                    <mxGeometry width="50" height="50" relative="1" as="geometry">
                        <mxPoint x="270" y="180" as="sourcePoint"/>
                        <mxPoint x="300" y="180" as="targetPoint"/>
                    </mxGeometry>
                </mxCell>
                <mxCell id="c8MKWguthajJ-H5QnTWe-16" value="" style="group" parent="1" vertex="1" connectable="0">
                    <mxGeometry x="280" y="40" width="210" height="80" as="geometry"/>
                </mxCell>
                <mxCell id="c8MKWguthajJ-H5QnTWe-14" value="" style="rounded=0;whiteSpace=wrap;html=1;fillColor=none;container=0;" parent="c8MKWguthajJ-H5QnTWe-16" vertex="1">
                    <mxGeometry width="210" height="80" as="geometry"/>
                </mxCell>
                <mxCell id="c8MKWguthajJ-H5QnTWe-12" value="&lt;div&gt;日時:&lt;/div&gt;変更者:&lt;div&gt;変更場所:&lt;/div&gt;&lt;div&gt;変更内容:&lt;/div&gt;&lt;div style=&quot;&quot;&gt;コメント:&lt;/div&gt;" style="rounded=0;whiteSpace=wrap;html=1;align=right;strokeColor=none;container=0;" parent="c8MKWguthajJ-H5QnTWe-16" vertex="1">
                    <mxGeometry width="60" height="80" as="geometry"/>
                </mxCell>
                <mxCell id="c8MKWguthajJ-H5QnTWe-13" value="&lt;div&gt;YYYY-MM-D2&lt;/div&gt;Ojii3&lt;div&gt;ヘッダー&lt;/div&gt;&lt;div&gt;空欄 → &quot;MCCの紹介&quot;&lt;/div&gt;&lt;div&gt;&quot;タイトルを追加しました&quot;&lt;/div&gt;" style="rounded=0;whiteSpace=wrap;html=1;align=left;strokeColor=none;container=0;" parent="c8MKWguthajJ-H5QnTWe-16" vertex="1">
                    <mxGeometry x="60" width="150" height="80" as="geometry"/>
                </mxCell>
                <mxCell id="c8MKWguthajJ-H5QnTWe-17" value="" style="group" parent="1" vertex="1" connectable="0">
                    <mxGeometry x="40" y="40" width="210" height="80" as="geometry"/>
                </mxCell>
                <mxCell id="c8MKWguthajJ-H5QnTWe-9" value="" style="rounded=0;whiteSpace=wrap;html=1;fillColor=none;" parent="c8MKWguthajJ-H5QnTWe-17" vertex="1">
                    <mxGeometry width="210" height="80" as="geometry"/>
                </mxCell>
                <mxCell id="c8MKWguthajJ-H5QnTWe-2" value="&lt;div&gt;日時:&lt;/div&gt;変更者:&lt;div&gt;変更場所:&lt;/div&gt;&lt;div&gt;変更内容:&lt;/div&gt;&lt;div style=&quot;&quot;&gt;コメント:&lt;/div&gt;" style="rounded=0;whiteSpace=wrap;html=1;align=right;strokeColor=none;" parent="c8MKWguthajJ-H5QnTWe-17" vertex="1">
                    <mxGeometry width="60" height="80" as="geometry"/>
                </mxCell>
                <mxCell id="c8MKWguthajJ-H5QnTWe-8" value="&lt;div&gt;YYYY-MM-D1&lt;/div&gt;Ojii3&lt;div&gt;ファイル自体&lt;/div&gt;&lt;div&gt;ファイルを作成&lt;/div&gt;&lt;div&gt;&quot;ファイルを作成しました.&quot;&lt;/div&gt;" style="rounded=0;whiteSpace=wrap;html=1;align=left;strokeColor=none;" parent="c8MKWguthajJ-H5QnTWe-17" vertex="1">
                    <mxGeometry x="60" width="150" height="80" as="geometry"/>
                </mxCell>
                <mxCell id="c8MKWguthajJ-H5QnTWe-18" value="" style="endArrow=classic;html=1;rounded=0;" parent="1" source="c8MKWguthajJ-H5QnTWe-21" target="c8MKWguthajJ-H5QnTWe-13" edge="1">
                    <mxGeometry width="50" height="50" relative="1" as="geometry">
                        <mxPoint x="490" y="160" as="sourcePoint"/>
                        <mxPoint x="530" y="160" as="targetPoint"/>
                    </mxGeometry>
                </mxCell>
                <mxCell id="c8MKWguthajJ-H5QnTWe-19" value="" style="group" parent="1" vertex="1" connectable="0">
                    <mxGeometry x="530" y="40" width="290" height="80" as="geometry"/>
                </mxCell>
                <mxCell id="c8MKWguthajJ-H5QnTWe-20" value="" style="rounded=0;whiteSpace=wrap;html=1;fillColor=none;container=0;" parent="c8MKWguthajJ-H5QnTWe-19" vertex="1">
                    <mxGeometry width="290" height="80" as="geometry"/>
                </mxCell>
                <mxCell id="c8MKWguthajJ-H5QnTWe-21" value="&lt;div&gt;日時:&lt;/div&gt;変更者:&lt;div&gt;変更場所:&lt;/div&gt;&lt;div&gt;変更内容:&lt;/div&gt;&lt;div style=&quot;&quot;&gt;コメント:&lt;/div&gt;" style="rounded=0;whiteSpace=wrap;html=1;align=right;strokeColor=none;container=0;" parent="c8MKWguthajJ-H5QnTWe-19" vertex="1">
                    <mxGeometry width="58" height="80" as="geometry"/>
                </mxCell>
                <mxCell id="c8MKWguthajJ-H5QnTWe-22" value="&lt;div&gt;YYYY-MM-D3&lt;/div&gt;SUGAWA&lt;div&gt;ボディ&lt;/div&gt;&lt;div&gt;空欄 → &quot;MCCは農工大のサークルです！&quot;&lt;/div&gt;&lt;div&gt;&quot;本文を追加しました&quot;&lt;/div&gt;" style="rounded=0;whiteSpace=wrap;html=1;align=left;strokeColor=none;container=0;" parent="c8MKWguthajJ-H5QnTWe-19" vertex="1">
                    <mxGeometry x="58" width="232" height="80" as="geometry"/>
                </mxCell>
                <mxCell id="c8MKWguthajJ-H5QnTWe-23" value="" style="group" parent="1" vertex="1" connectable="0">
                    <mxGeometry x="860" y="40" width="250" height="80" as="geometry"/>
                </mxCell>
                <mxCell id="c8MKWguthajJ-H5QnTWe-24" value="" style="rounded=0;whiteSpace=wrap;html=1;fillColor=none;container=0;" parent="c8MKWguthajJ-H5QnTWe-23" vertex="1">
                    <mxGeometry width="249.99999999999997" height="80" as="geometry"/>
                </mxCell>
                <mxCell id="c8MKWguthajJ-H5QnTWe-25" value="&lt;div&gt;日時:&lt;/div&gt;変更者:&lt;div&gt;変更場所:&lt;/div&gt;&lt;div&gt;変更内容:&lt;/div&gt;&lt;div style=&quot;&quot;&gt;コメント:&lt;/div&gt;" style="rounded=0;whiteSpace=wrap;html=1;align=right;strokeColor=none;container=0;" parent="c8MKWguthajJ-H5QnTWe-23" vertex="1">
                    <mxGeometry width="60" height="80" as="geometry"/>
                </mxCell>
                <mxCell id="c8MKWguthajJ-H5QnTWe-26" value="&lt;div&gt;YYYY-MM-DD&lt;/div&gt;SUGAWA&lt;div&gt;ヘッダー&lt;/div&gt;&lt;div&gt;&lt;span style=&quot;background-color: transparent; color: light-dark(rgb(0, 0, 0), rgb(255, 255, 255));&quot;&gt;&quot;MCCの紹介&quot;&lt;/span&gt;&amp;nbsp;→&amp;nbsp;&lt;span style=&quot;background-color: transparent; color: light-dark(rgb(0, 0, 0), rgb(255, 255, 255));&quot;&gt;&quot;MCCの紹介資料&quot;&lt;/span&gt;&lt;/div&gt;&lt;div&gt;&quot;タイトルを修正しました&quot;&lt;/div&gt;" style="rounded=0;whiteSpace=wrap;html=1;align=left;strokeColor=none;container=0;" parent="c8MKWguthajJ-H5QnTWe-23" vertex="1">
                    <mxGeometry x="60" width="190" height="80" as="geometry"/>
                </mxCell>
                <mxCell id="c8MKWguthajJ-H5QnTWe-27" value="" style="endArrow=classic;html=1;rounded=0;" parent="1" source="c8MKWguthajJ-H5QnTWe-25" target="c8MKWguthajJ-H5QnTWe-22" edge="1">
                    <mxGeometry width="50" height="50" relative="1" as="geometry">
                        <mxPoint x="840" y="160" as="sourcePoint"/>
                        <mxPoint x="780" y="210" as="targetPoint"/>
                    </mxGeometry>
                </mxCell>
            </root>
        </mxGraphModel>
    </diagram>
    <diagram id="bkaWCVtgoD92-UuC9IDb" name="ページ3">
        <mxGraphModel dx="403" dy="728" grid="1" gridSize="10" guides="1" tooltips="1" connect="1" arrows="1" fold="1" page="1" pageScale="1" pageWidth="827" pageHeight="1169" math="0" shadow="0">
            <root>
                <mxCell id="0"/>
                <mxCell id="1" parent="0"/>
                <mxCell id="uRJo3GpiDrvb92v9-qqw-3" value="" style="shape=mxgraph.cisco.servers.fileserver;sketch=0;html=1;pointerEvents=1;dashed=0;fillColor=#036897;strokeColor=#ffffff;strokeWidth=2;verticalLabelPosition=bottom;verticalAlign=top;align=center;outlineConnect=0;" parent="1" vertex="1">
                    <mxGeometry x="380" y="90" width="43" height="62" as="geometry"/>
                </mxCell>
                <mxCell id="uRJo3GpiDrvb92v9-qqw-4" value="" style="shape=mxgraph.cisco.computers_and_peripherals.terminal;sketch=0;html=1;pointerEvents=1;dashed=0;fillColor=#036897;strokeColor=#ffffff;strokeWidth=2;verticalLabelPosition=bottom;verticalAlign=top;align=center;outlineConnect=0;" parent="1" vertex="1">
                    <mxGeometry x="300" y="230" width="61" height="54" as="geometry"/>
                </mxCell>
                <mxCell id="uRJo3GpiDrvb92v9-qqw-5" value="" style="shape=mxgraph.cisco.computers_and_peripherals.terminal;sketch=0;html=1;pointerEvents=1;dashed=0;fillColor=#036897;strokeColor=#ffffff;strokeWidth=2;verticalLabelPosition=bottom;verticalAlign=top;align=center;outlineConnect=0;" parent="1" vertex="1">
                    <mxGeometry x="440" y="230" width="61" height="54" as="geometry"/>
                </mxCell>
                <mxCell id="uRJo3GpiDrvb92v9-qqw-6" value="" style="endArrow=classic;startArrow=classic;html=1;rounded=0;" parent="1" source="uRJo3GpiDrvb92v9-qqw-4" target="uRJo3GpiDrvb92v9-qqw-3" edge="1">
                    <mxGeometry width="50" height="50" relative="1" as="geometry">
                        <mxPoint x="170" y="200" as="sourcePoint"/>
                        <mxPoint x="220" y="150" as="targetPoint"/>
                    </mxGeometry>
                </mxCell>
                <mxCell id="uRJo3GpiDrvb92v9-qqw-7" value="" style="endArrow=classic;startArrow=classic;html=1;rounded=0;" parent="1" source="uRJo3GpiDrvb92v9-qqw-5" target="uRJo3GpiDrvb92v9-qqw-3" edge="1">
                    <mxGeometry width="50" height="50" relative="1" as="geometry">
                        <mxPoint x="480" y="170" as="sourcePoint"/>
                        <mxPoint x="530" y="120" as="targetPoint"/>
                    </mxGeometry>
                </mxCell>
                <mxCell id="uRJo3GpiDrvb92v9-qqw-8" value="他の人の変更を取得&lt;div&gt;自分の変更を適用&lt;/div&gt;" style="text;html=1;align=center;verticalAlign=middle;whiteSpace=wrap;rounded=0;" parent="1" vertex="1">
                    <mxGeometry x="241" y="160" width="120" height="40" as="geometry"/>
                </mxCell>
                <mxCell id="uRJo3GpiDrvb92v9-qqw-9" value="他の人の変更を取得&lt;div&gt;自分の変更を適用&lt;/div&gt;" style="text;html=1;align=center;verticalAlign=middle;whiteSpace=wrap;rounded=0;" parent="1" vertex="1">
                    <mxGeometry x="440" y="160" width="120" height="40" as="geometry"/>
                </mxCell>
                <mxCell id="uRJo3GpiDrvb92v9-qqw-10" value="中央サーバー" style="text;html=1;align=center;verticalAlign=middle;whiteSpace=wrap;rounded=0;" parent="1" vertex="1">
                    <mxGeometry x="341.5" y="70" width="120" height="20" as="geometry"/>
                </mxCell>
                <mxCell id="uRJo3GpiDrvb92v9-qqw-11" value="ユーザー1" style="text;html=1;align=center;verticalAlign=middle;whiteSpace=wrap;rounded=0;" parent="1" vertex="1">
                    <mxGeometry x="270.5" y="284" width="120" height="20" as="geometry"/>
                </mxCell>
                <mxCell id="uRJo3GpiDrvb92v9-qqw-12" value="ユーザー2" style="text;html=1;align=center;verticalAlign=middle;whiteSpace=wrap;rounded=0;" parent="1" vertex="1">
                    <mxGeometry x="410.5" y="284" width="120" height="20" as="geometry"/>
                </mxCell>
            </root>
        </mxGraphModel>
    </diagram>
    <diagram id="9PBkLxBcDvNzMHtsx-dW" name="ページ4">
        <mxGraphModel dx="1505" dy="-301" grid="1" gridSize="10" guides="1" tooltips="1" connect="1" arrows="1" fold="1" page="1" pageScale="1" pageWidth="827" pageHeight="1169" math="0" shadow="0">
            <root>
                <mxCell id="0"/>
                <mxCell id="1" parent="0"/>
                <mxCell id="lV2OuUuTPJvp2O1_0j9l-1" value="" style="shape=mxgraph.cisco.servers.fileserver;sketch=0;html=1;pointerEvents=1;dashed=0;fillColor=#036897;strokeColor=#ffffff;strokeWidth=2;verticalLabelPosition=bottom;verticalAlign=top;align=center;outlineConnect=0;" vertex="1" parent="1">
                    <mxGeometry x="-521" y="1320" width="43" height="62" as="geometry"/>
                </mxCell>
                <mxCell id="lV2OuUuTPJvp2O1_0j9l-2" value="" style="shape=mxgraph.cisco.computers_and_peripherals.terminal;sketch=0;html=1;pointerEvents=1;dashed=0;fillColor=#036897;strokeColor=#ffffff;strokeWidth=2;verticalLabelPosition=bottom;verticalAlign=top;align=center;outlineConnect=0;" vertex="1" parent="1">
                    <mxGeometry x="-601" y="1460" width="61" height="54" as="geometry"/>
                </mxCell>
                <mxCell id="lV2OuUuTPJvp2O1_0j9l-3" value="" style="shape=mxgraph.cisco.computers_and_peripherals.terminal;sketch=0;html=1;pointerEvents=1;dashed=0;fillColor=#036897;strokeColor=#ffffff;strokeWidth=2;verticalLabelPosition=bottom;verticalAlign=top;align=center;outlineConnect=0;" vertex="1" parent="1">
                    <mxGeometry x="-461" y="1460" width="61" height="54" as="geometry"/>
                </mxCell>
                <mxCell id="lV2OuUuTPJvp2O1_0j9l-4" value="" style="endArrow=classic;startArrow=classic;html=1;rounded=0;" edge="1" parent="1" source="lV2OuUuTPJvp2O1_0j9l-2" target="lV2OuUuTPJvp2O1_0j9l-1">
                    <mxGeometry width="50" height="50" relative="1" as="geometry">
                        <mxPoint x="-731" y="1430" as="sourcePoint"/>
                        <mxPoint x="-681" y="1380" as="targetPoint"/>
                    </mxGeometry>
                </mxCell>
                <mxCell id="lV2OuUuTPJvp2O1_0j9l-5" value="" style="endArrow=classic;startArrow=classic;html=1;rounded=0;" edge="1" parent="1" source="lV2OuUuTPJvp2O1_0j9l-3" target="lV2OuUuTPJvp2O1_0j9l-1">
                    <mxGeometry width="50" height="50" relative="1" as="geometry">
                        <mxPoint x="-421" y="1400" as="sourcePoint"/>
                        <mxPoint x="-371" y="1350" as="targetPoint"/>
                    </mxGeometry>
                </mxCell>
                <mxCell id="lV2OuUuTPJvp2O1_0j9l-8" value="サーバー1" style="text;html=1;align=center;verticalAlign=middle;whiteSpace=wrap;rounded=0;" vertex="1" parent="1">
                    <mxGeometry x="-529" y="1300" width="59" height="20" as="geometry"/>
                </mxCell>
                <mxCell id="lV2OuUuTPJvp2O1_0j9l-9" value="ユーザー1" style="text;html=1;align=center;verticalAlign=middle;whiteSpace=wrap;rounded=0;" vertex="1" parent="1">
                    <mxGeometry x="-601" y="1514" width="61" height="20" as="geometry"/>
                </mxCell>
                <mxCell id="lV2OuUuTPJvp2O1_0j9l-10" value="ユーザー2" style="text;html=1;align=center;verticalAlign=middle;whiteSpace=wrap;rounded=0;" vertex="1" parent="1">
                    <mxGeometry x="-461" y="1514" width="61" height="20" as="geometry"/>
                </mxCell>
                <mxCell id="lV2OuUuTPJvp2O1_0j9l-13" value="" style="shape=mxgraph.cisco.computers_and_peripherals.terminal;sketch=0;html=1;pointerEvents=1;dashed=0;fillColor=#036897;strokeColor=#ffffff;strokeWidth=2;verticalLabelPosition=bottom;verticalAlign=top;align=center;outlineConnect=0;" vertex="1" parent="1">
                    <mxGeometry x="-321" y="1460" width="61" height="54" as="geometry"/>
                </mxCell>
                <mxCell id="lV2OuUuTPJvp2O1_0j9l-14" value="ユーザー3" style="text;html=1;align=center;verticalAlign=middle;whiteSpace=wrap;rounded=0;" vertex="1" parent="1">
                    <mxGeometry x="-321" y="1514" width="61" height="20" as="geometry"/>
                </mxCell>
                <mxCell id="lV2OuUuTPJvp2O1_0j9l-15" value="" style="shape=mxgraph.cisco.servers.fileserver;sketch=0;html=1;pointerEvents=1;dashed=0;fillColor=#036897;strokeColor=#ffffff;strokeWidth=2;verticalLabelPosition=bottom;verticalAlign=top;align=center;outlineConnect=0;" vertex="1" parent="1">
                    <mxGeometry x="-382" y="1320" width="43" height="62" as="geometry"/>
                </mxCell>
                <mxCell id="lV2OuUuTPJvp2O1_0j9l-16" value="サーバー2" style="text;html=1;align=center;verticalAlign=middle;whiteSpace=wrap;rounded=0;" vertex="1" parent="1">
                    <mxGeometry x="-390" y="1300" width="59" height="20" as="geometry"/>
                </mxCell>
                <mxCell id="lV2OuUuTPJvp2O1_0j9l-17" value="" style="shape=mxgraph.cisco.servers.fileserver;sketch=0;html=1;pointerEvents=1;dashed=0;fillColor=#036897;strokeColor=#ffffff;strokeWidth=2;verticalLabelPosition=bottom;verticalAlign=top;align=center;outlineConnect=0;" vertex="1" parent="1">
                    <mxGeometry x="-251" y="1320" width="43" height="62" as="geometry"/>
                </mxCell>
                <mxCell id="lV2OuUuTPJvp2O1_0j9l-18" value="サーバー3" style="text;html=1;align=center;verticalAlign=middle;whiteSpace=wrap;rounded=0;" vertex="1" parent="1">
                    <mxGeometry x="-259" y="1300" width="59" height="20" as="geometry"/>
                </mxCell>
                <mxCell id="lV2OuUuTPJvp2O1_0j9l-19" value="" style="shape=mxgraph.cisco.computers_and_peripherals.terminal;sketch=0;html=1;pointerEvents=1;dashed=0;fillColor=#036897;strokeColor=#ffffff;strokeWidth=2;verticalLabelPosition=bottom;verticalAlign=top;align=center;outlineConnect=0;" vertex="1" parent="1">
                    <mxGeometry x="-200" y="1460" width="61" height="54" as="geometry"/>
                </mxCell>
                <mxCell id="lV2OuUuTPJvp2O1_0j9l-20" value="ユーザー4" style="text;html=1;align=center;verticalAlign=middle;whiteSpace=wrap;rounded=0;" vertex="1" parent="1">
                    <mxGeometry x="-200" y="1514" width="61" height="20" as="geometry"/>
                </mxCell>
                <mxCell id="lV2OuUuTPJvp2O1_0j9l-21" value="" style="endArrow=classic;startArrow=classic;html=1;rounded=0;" edge="1" parent="1" source="lV2OuUuTPJvp2O1_0j9l-19" target="lV2OuUuTPJvp2O1_0j9l-17">
                    <mxGeometry width="50" height="50" relative="1" as="geometry">
                        <mxPoint x="-230" y="1488" as="sourcePoint"/>
                        <mxPoint x="-270" y="1410" as="targetPoint"/>
                    </mxGeometry>
                </mxCell>
                <mxCell id="lV2OuUuTPJvp2O1_0j9l-22" value="" style="endArrow=classic;startArrow=classic;html=1;rounded=0;" edge="1" parent="1" source="lV2OuUuTPJvp2O1_0j9l-13" target="lV2OuUuTPJvp2O1_0j9l-15">
                    <mxGeometry width="50" height="50" relative="1" as="geometry">
                        <mxPoint x="-350" y="1488" as="sourcePoint"/>
                        <mxPoint x="-390" y="1410" as="targetPoint"/>
                    </mxGeometry>
                </mxCell>
                <mxCell id="lV2OuUuTPJvp2O1_0j9l-23" value="" style="endArrow=classic;startArrow=classic;html=1;rounded=0;" edge="1" parent="1" source="lV2OuUuTPJvp2O1_0j9l-13" target="lV2OuUuTPJvp2O1_0j9l-17">
                    <mxGeometry width="50" height="50" relative="1" as="geometry">
                        <mxPoint x="-299" y="1478" as="sourcePoint"/>
                        <mxPoint x="-340" y="1400" as="targetPoint"/>
                    </mxGeometry>
                </mxCell>
                <mxCell id="lV2OuUuTPJvp2O1_0j9l-24" value="" style="endArrow=classic;startArrow=classic;html=1;rounded=0;" edge="1" parent="1" source="lV2OuUuTPJvp2O1_0j9l-15" target="lV2OuUuTPJvp2O1_0j9l-1">
                    <mxGeometry width="50" height="50" relative="1" as="geometry">
                        <mxPoint x="-299" y="1478" as="sourcePoint"/>
                        <mxPoint x="-340" y="1400" as="targetPoint"/>
                    </mxGeometry>
                </mxCell>
                <mxCell id="NkmtsoQcE7HwcgNsxLGI-1" value="他の人の変更を取得サーバーを更新" style="text;html=1;align=center;verticalAlign=middle;whiteSpace=wrap;rounded=0;" vertex="1" parent="1">
                    <mxGeometry x="-660" y="1400" width="120" height="40" as="geometry"/>
                </mxCell>
                <mxCell id="S-9HBeCxBfSj-Fcopznq-2" value="&lt;div&gt;自分の変更を適用&lt;/div&gt;" style="text;html=1;align=center;verticalAlign=middle;whiteSpace=wrap;rounded=0;" vertex="1" parent="1">
                    <mxGeometry x="-710" y="1474" width="120" height="26" as="geometry"/>
                </mxCell>
            </root>
        </mxGraphModel>
    </diagram>
    <diagram id="VeGnAc6uS2Q5zAO-C6CR" name="ページ5">
        <mxGraphModel dx="570" dy="729" grid="1" gridSize="10" guides="1" tooltips="1" connect="1" arrows="1" fold="1" page="1" pageScale="1" pageWidth="827" pageHeight="1169" math="0" shadow="0">
            <root>
                <mxCell id="0"/>
                <mxCell id="1" parent="0"/>
                <mxCell id="B1QcML-Ji1PEmfpI10t9-1" value="" style="endArrow=classic;html=1;rounded=0;" edge="1" parent="1" source="B1QcML-Ji1PEmfpI10t9-4" target="B1QcML-Ji1PEmfpI10t9-9">
                    <mxGeometry width="50" height="50" relative="1" as="geometry">
                        <mxPoint x="270" y="180" as="sourcePoint"/>
                        <mxPoint x="300" y="180" as="targetPoint"/>
                    </mxGeometry>
                </mxCell>
                <mxCell id="B1QcML-Ji1PEmfpI10t9-2" value="" style="group" vertex="1" connectable="0" parent="1">
                    <mxGeometry x="250" y="40" width="170" height="80" as="geometry"/>
                </mxCell>
                <mxCell id="B1QcML-Ji1PEmfpI10t9-3" value="" style="rounded=0;whiteSpace=wrap;html=1;fillColor=none;container=0;" vertex="1" parent="B1QcML-Ji1PEmfpI10t9-2">
                    <mxGeometry width="170" height="80" as="geometry"/>
                </mxCell>
                <mxCell id="B1QcML-Ji1PEmfpI10t9-4" value="&lt;div&gt;日時:&lt;/div&gt;変更者:&lt;div&gt;変更場所:&lt;/div&gt;&lt;div&gt;変更内容:&lt;/div&gt;&lt;div style=&quot;&quot;&gt;コメント:&lt;/div&gt;" style="rounded=0;whiteSpace=wrap;html=1;align=right;strokeColor=none;container=0;" vertex="1" parent="B1QcML-Ji1PEmfpI10t9-2">
                    <mxGeometry width="60" height="80" as="geometry"/>
                </mxCell>
                <mxCell id="B1QcML-Ji1PEmfpI10t9-5" value="&lt;div&gt;&lt;span style=&quot;background-color: transparent;&quot;&gt;2025-09-20&lt;/span&gt;&lt;/div&gt;&lt;div&gt;&lt;span style=&quot;background-color: transparent; color: light-dark(rgb(0, 0, 0), rgb(255, 255, 255));&quot;&gt;sugawa197203&lt;/span&gt;&lt;/div&gt;&lt;div&gt;myname.txt&lt;/div&gt;&lt;div&gt;myname.txtの2行目&lt;/div&gt;&lt;div&gt;&quot;学籍番号を追加&quot;&lt;/div&gt;" style="rounded=0;whiteSpace=wrap;html=1;align=left;strokeColor=none;container=0;" vertex="1" parent="B1QcML-Ji1PEmfpI10t9-2">
                    <mxGeometry x="60" width="110" height="80" as="geometry"/>
                </mxCell>
                <mxCell id="B1QcML-Ji1PEmfpI10t9-6" value="" style="group" vertex="1" connectable="0" parent="1">
                    <mxGeometry x="40" y="40" width="210" height="80" as="geometry"/>
                </mxCell>
                <mxCell id="B1QcML-Ji1PEmfpI10t9-7" value="" style="rounded=0;whiteSpace=wrap;html=1;fillColor=none;" vertex="1" parent="B1QcML-Ji1PEmfpI10t9-6">
                    <mxGeometry width="170" height="80" as="geometry"/>
                </mxCell>
                <mxCell id="B1QcML-Ji1PEmfpI10t9-8" value="&lt;div&gt;日時:&lt;/div&gt;変更者:&lt;div&gt;変更場所:&lt;/div&gt;&lt;div&gt;変更内容:&lt;/div&gt;&lt;div style=&quot;&quot;&gt;コメント:&lt;/div&gt;" style="rounded=0;whiteSpace=wrap;html=1;align=right;strokeColor=none;" vertex="1" parent="B1QcML-Ji1PEmfpI10t9-6">
                    <mxGeometry width="60" height="80" as="geometry"/>
                </mxCell>
                <mxCell id="B1QcML-Ji1PEmfpI10t9-9" value="&lt;div&gt;2025-09-20&lt;/div&gt;sugawa197203&lt;div&gt;myname.txt&lt;/div&gt;&lt;div&gt;myname.txtを作成&lt;/div&gt;&lt;div&gt;&quot;Add myname.txt&quot;&lt;/div&gt;" style="rounded=0;whiteSpace=wrap;html=1;align=left;strokeColor=none;" vertex="1" parent="B1QcML-Ji1PEmfpI10t9-6">
                    <mxGeometry x="60" width="110" height="80" as="geometry"/>
                </mxCell>
            </root>
        </mxGraphModel>
    </diagram>
    <diagram id="YyFp956Nb5qaUMGA4niP" name="ページ6">
        <mxGraphModel dx="1424" dy="680" grid="1" gridSize="10" guides="1" tooltips="1" connect="1" arrows="1" fold="1" page="1" pageScale="1" pageWidth="827" pageHeight="1169" math="0" shadow="0">
            <root>
                <mxCell id="0"/>
                <mxCell id="1" parent="0"/>
                <mxCell id="PDfgv0-D5NQAl-DQgaV--1" value="" style="endArrow=classic;html=1;rounded=0;" parent="1" source="PDfgv0-D5NQAl-DQgaV--4" target="PDfgv0-D5NQAl-DQgaV--9" edge="1">
                    <mxGeometry width="50" height="50" relative="1" as="geometry">
                        <mxPoint x="270" y="1380" as="sourcePoint"/>
                        <mxPoint x="300" y="1380" as="targetPoint"/>
                    </mxGeometry>
                </mxCell>
                <mxCell id="PDfgv0-D5NQAl-DQgaV--2" value="" style="group" parent="1" vertex="1" connectable="0">
                    <mxGeometry x="250" y="1240" width="170" height="80" as="geometry"/>
                </mxCell>
                <mxCell id="PDfgv0-D5NQAl-DQgaV--3" value="" style="rounded=0;whiteSpace=wrap;html=1;fillColor=none;container=0;" parent="PDfgv0-D5NQAl-DQgaV--2" vertex="1">
                    <mxGeometry width="170" height="80" as="geometry"/>
                </mxCell>
                <mxCell id="PDfgv0-D5NQAl-DQgaV--4" value="&lt;div&gt;日時:&lt;/div&gt;変更者:&lt;div&gt;変更場所:&lt;/div&gt;&lt;div&gt;変更内容:&lt;/div&gt;&lt;div style=&quot;&quot;&gt;コメント:&lt;/div&gt;" style="rounded=0;whiteSpace=wrap;html=1;align=right;strokeColor=none;container=0;" parent="PDfgv0-D5NQAl-DQgaV--2" vertex="1">
                    <mxGeometry width="60" height="80" as="geometry"/>
                </mxCell>
                <mxCell id="PDfgv0-D5NQAl-DQgaV--5" value="&lt;div&gt;&lt;span style=&quot;background-color: transparent;&quot;&gt;2025-09-20&lt;/span&gt;&lt;/div&gt;&lt;div&gt;&lt;span style=&quot;background-color: transparent; color: light-dark(rgb(0, 0, 0), rgb(255, 255, 255));&quot;&gt;sugawa197203&lt;/span&gt;&lt;/div&gt;&lt;div&gt;myname.txt&lt;/div&gt;&lt;div&gt;myname.txtの2行目&lt;/div&gt;&lt;div&gt;&quot;学籍番号を追加&quot;&lt;/div&gt;" style="rounded=0;whiteSpace=wrap;html=1;align=left;strokeColor=none;container=0;" parent="PDfgv0-D5NQAl-DQgaV--2" vertex="1">
                    <mxGeometry x="60" width="110" height="80" as="geometry"/>
                </mxCell>
                <mxCell id="PDfgv0-D5NQAl-DQgaV--6" value="" style="group" parent="1" vertex="1" connectable="0">
                    <mxGeometry x="40" y="1240" width="210" height="80" as="geometry"/>
                </mxCell>
                <mxCell id="PDfgv0-D5NQAl-DQgaV--7" value="" style="rounded=0;whiteSpace=wrap;html=1;fillColor=none;" parent="PDfgv0-D5NQAl-DQgaV--6" vertex="1">
                    <mxGeometry width="170" height="80" as="geometry"/>
                </mxCell>
                <mxCell id="PDfgv0-D5NQAl-DQgaV--8" value="&lt;div&gt;日時:&lt;/div&gt;変更者:&lt;div&gt;変更場所:&lt;/div&gt;&lt;div&gt;変更内容:&lt;/div&gt;&lt;div style=&quot;&quot;&gt;コメント:&lt;/div&gt;" style="rounded=0;whiteSpace=wrap;html=1;align=right;strokeColor=none;" parent="PDfgv0-D5NQAl-DQgaV--6" vertex="1">
                    <mxGeometry width="60" height="80" as="geometry"/>
                </mxCell>
                <mxCell id="PDfgv0-D5NQAl-DQgaV--9" value="&lt;div&gt;2025-09-20&lt;/div&gt;sugawa197203&lt;div&gt;myname.txt&lt;/div&gt;&lt;div&gt;myname.txtを作成&lt;/div&gt;&lt;div&gt;&quot;Add myname.txt&quot;&lt;/div&gt;" style="rounded=0;whiteSpace=wrap;html=1;align=left;strokeColor=none;" parent="PDfgv0-D5NQAl-DQgaV--6" vertex="1">
                    <mxGeometry x="60" width="110" height="80" as="geometry"/>
                </mxCell>
                <mxCell id="PDfgv0-D5NQAl-DQgaV--10" value="" style="endArrow=classic;html=1;rounded=0;" parent="1" source="PDfgv0-D5NQAl-DQgaV--13" edge="1">
                    <mxGeometry width="50" height="50" relative="1" as="geometry">
                        <mxPoint x="480" y="1380" as="sourcePoint"/>
                        <mxPoint x="420" y="1280" as="targetPoint"/>
                    </mxGeometry>
                </mxCell>
                <mxCell id="PDfgv0-D5NQAl-DQgaV--11" value="" style="group" parent="1" vertex="1" connectable="0">
                    <mxGeometry x="460" y="1240" width="170" height="80" as="geometry"/>
                </mxCell>
                <mxCell id="PDfgv0-D5NQAl-DQgaV--12" value="" style="rounded=0;whiteSpace=wrap;html=1;fillColor=none;container=0;" parent="PDfgv0-D5NQAl-DQgaV--11" vertex="1">
                    <mxGeometry width="170" height="80" as="geometry"/>
                </mxCell>
                <mxCell id="PDfgv0-D5NQAl-DQgaV--13" value="&lt;div&gt;日時:&lt;/div&gt;変更者:&lt;div&gt;変更場所:&lt;/div&gt;&lt;div&gt;変更内容:&lt;/div&gt;&lt;div style=&quot;&quot;&gt;コメント:&lt;/div&gt;" style="rounded=0;whiteSpace=wrap;html=1;align=right;strokeColor=none;container=0;" parent="PDfgv0-D5NQAl-DQgaV--11" vertex="1">
                    <mxGeometry width="60" height="80" as="geometry"/>
                </mxCell>
                <mxCell id="PDfgv0-D5NQAl-DQgaV--14" value="&lt;div&gt;&lt;span style=&quot;background-color: transparent;&quot;&gt;2025-09-20&lt;/span&gt;&lt;/div&gt;&lt;div&gt;&lt;span style=&quot;background-color: transparent; color: light-dark(rgb(0, 0, 0), rgb(255, 255, 255));&quot;&gt;sugawa197203&lt;/span&gt;&lt;/div&gt;&lt;div&gt;myname.txt&lt;/div&gt;&lt;div&gt;myname.txtの2行目&lt;/div&gt;&lt;div&gt;&quot;学科名を追加&quot;&lt;/div&gt;" style="rounded=0;whiteSpace=wrap;html=1;align=left;strokeColor=none;container=0;" parent="PDfgv0-D5NQAl-DQgaV--11" vertex="1">
                    <mxGeometry x="60" width="110" height="80" as="geometry"/>
                </mxCell>
            </root>
        </mxGraphModel>
    </diagram>
    <diagram id="7iWDZBL55bXbs49dmedP" name="ページ7">
        <mxGraphModel dx="403" dy="728" grid="1" gridSize="10" guides="1" tooltips="1" connect="1" arrows="1" fold="1" page="1" pageScale="1" pageWidth="827" pageHeight="1169" math="0" shadow="0">
            <root>
                <mxCell id="0"/>
                <mxCell id="1" parent="0"/>
            </root>
        </mxGraphModel>
    </diagram>
</mxfile>